<?xml version="1.0" encoding="iso-8859-1"?>
<!-- Generator: Adobe Illustrator 19.0.0, SVG Export Plug-In . SVG Version: 6.00 Build 0)  -->
<svg version="1.1" id="Capa_1" xmlns="http://www.w3.org/2000/svg" xmlns:xlink="http://www.w3.org/1999/xlink" x="0px" y="0px"
	 viewBox="0 0 422.8 422.8" style="enable-background:new 0 0 422.8 422.8;" xml:space="preserve">
<g>
	<path style="fill:#D29B88;" d="M41.2,134l124,39.6c-3.2,4.8-3.2,70.8,0,75.6l-124,39.6C26,293.6,0,306,0,274.4v-126
		C0.4,116.8,26,129.2,41.2,134"/>
	<path style="fill:#D29B88;" d="M382,134l-124,39.6c3.2,4.8,3.2,71.2,0,76l123.6,39.2c15.2,4.8,41.2,17.2,41.2-14.4v-126
		C422.8,116.8,396.8,129.2,382,134"/>
</g>
<path style="fill:#3E425B;" d="M190,160.4h43.6c16,0,29.2,13.2,29.2,29.2v43.6c0,16-13.2,29.2-29.2,29.2H190
	c-16,0-29.2-13.2-29.2-29.2v-43.6C160.8,173.6,173.6,160.4,190,160.4"/>
<g>
</g>
<g>
</g>
<g>
</g>
<g>
</g>
<g>
</g>
<g>
</g>
<g>
</g>
<g>
</g>
<g>
</g>
<g>
</g>
<g>
</g>
<g>
</g>
<g>
</g>
<g>
</g>
<g>
</g>
</svg>
