<?xml version="1.0" encoding="iso-8859-1"?>
<!-- Generator: Adobe Illustrator 19.0.0, SVG Export Plug-In . SVG Version: 6.00 Build 0)  -->
<svg version="1.1" id="Capa_1" xmlns="http://www.w3.org/2000/svg" xmlns:xlink="http://www.w3.org/1999/xlink" x="0px" y="0px"
	 viewBox="0 0 440.038 440.038" style="enable-background:new 0 0 440.038 440.038;" xml:space="preserve">
<g>
	<g>
		<path style="fill:#3E425B;" d="M76.746,418.101c56.84-25.16,258.92-128,316.28-339.08c8.72-39.64,7.24-56-4.64-58.6
			c-13.16-2.88-25.84,14.56-37.24,45.72c-23.2,63.56-78.2,172.56-307.88,285.88c-36.4,16.72-15.56,87.68,33.48,66"/>
		<path style="fill:#3E425B;" d="M396.306,62.261l28,2.92c9.642,1.07,16.621,9.709,15.64,19.36
			c-1.049,9.658-9.695,16.66-19.36,15.68l-32.8-3.44c1.867-5.84,3.627-11.76,5.28-17.76c1.36-6.12,2.44-11.72,3.32-16.76
			 M354.386,57.861c-1.067,2.667-2.133,5.427-3.2,8.28c-2.88,8-6.28,16.52-10.4,25.72l-87.76-9.2l-2.8,26.64l-194.68-20.4
			c-33.95-3.675-58.599-34.018-55.24-68c107.64-11.36,238.92,11.84,354,36.96L354.386,57.861z"/>
	</g>
	<g>
		<path style="fill:#FFFFFF;" d="M370.146,67.021c5.567,0.066,10.026,4.633,9.959,10.199c-0.066,5.567-4.633,10.026-10.199,9.959
			c-5.52-0.066-9.96-4.559-9.96-10.079c0-5.567,4.513-10.08,10.08-10.08"/>
		<path style="fill:#FFFFFF;" d="M64.426,372.021c6.76,0,12.24,5.48,12.24,12.24c0,6.76-5.48,12.24-12.24,12.24
			s-12.24-5.48-12.24-12.24l0,0C52.186,377.501,57.666,372.021,64.426,372.021"/>
	</g>
	<g>
		<path style="fill:#D29B88;" d="M250.146,109.301l2.8-26.64l87.76,9.36c1.973-4.4,3.787-8.653,5.44-12.76l-107.72-11.68l-2.8,26.64
			l-194.68-20.4c-11.002-1.2-21.477-5.346-30.32-12c10.241,15.126,26.634,24.962,44.8,26.88L250.146,109.301z"/>
		<path style="fill:#D29B88;" d="M391.626,84.021c-1.227,4.347-2.56,8.653-4,12.92l32.8,3.44c7.761,0.792,15.124-3.596,18.12-10.8
			L391.626,84.021z"/>
	</g>
</g>
<g>
</g>
<g>
</g>
<g>
</g>
<g>
</g>
<g>
</g>
<g>
</g>
<g>
</g>
<g>
</g>
<g>
</g>
<g>
</g>
<g>
</g>
<g>
</g>
<g>
</g>
<g>
</g>
<g>
</g>
</svg>
