<?xml version="1.0" encoding="iso-8859-1"?>
<!-- Generator: Adobe Illustrator 19.0.0, SVG Export Plug-In . SVG Version: 6.00 Build 0)  -->
<svg version="1.1" id="Capa_1" xmlns="http://www.w3.org/2000/svg" xmlns:xlink="http://www.w3.org/1999/xlink" x="0px" y="0px"
	 viewBox="0 0 443.582 443.582" style="enable-background:new 0 0 443.582 443.582;" xml:space="preserve">
<g>
	<g>
		<path style="fill:#3E425B;" d="M96.549,72.8h39.12c4.807-0.022,8.698-3.913,8.72-8.72v-33.4h22.4c2.629,0,4.76-2.13,4.761-4.759
			c0-0.027,0-0.054-0.001-0.081V4.72c-0.022-2.598-2.122-4.698-4.72-4.72h-74.24c-2.598,0.022-4.698,2.122-4.72,4.72v59.36
			c0.022,4.807,3.913,8.698,8.72,8.72"/>
		<path style="fill:#3E425B;" d="M48.429,122.8h130.48c16.042,0.044,29.036,13.038,29.08,29.08v257.44
			c-0.044,16.042-13.038,29.036-29.08,29.08H48.429c-16.042-0.044-29.036-13.038-29.08-29.08V151.88
			C19.393,135.838,32.387,122.844,48.429,122.8"/>
	</g>
	<g>
		<path style="fill:#D29B88;" d="M69.869,122.8h92v-52c0-5.236-4.244-9.48-9.48-9.48h-72.88c-5.235-0.088-9.55,4.084-9.639,9.319
			c-0.001,0.067-0.002,0.134-0.001,0.201L69.869,122.8z"/>
		<path style="fill:#D29B88;" d="M313.869,286.8c3.6-4.6,1.6-10.52-12-21.12c-2.354-1.721-2.867-5.025-1.146-7.379
			c1.096-1.498,2.897-2.311,4.746-2.141l4.4,0.52c40.36,5.12,70,21.52,89,42.52c18.132,19.181,27.239,45.177,25.04,71.48
			c0,0.4,0,0.96-0.2,1.76c-2.98,30.2-23.445,55.821-52.24,65.4c-12.835,4.478-26.43,6.367-40,5.56
			c-13.433-0.711-26.611-3.955-38.84-9.56c-25.16-11.68-44-33.48-44.48-63.64c-0.061-13.485,4.139-26.644,12-37.6
			c9.328-12.914,21.181-23.801,34.84-32l2-1.28C303.189,295.98,308.874,291.763,313.869,286.8"/>
	</g>
</g>
<g>
</g>
<g>
</g>
<g>
</g>
<g>
</g>
<g>
</g>
<g>
</g>
<g>
</g>
<g>
</g>
<g>
</g>
<g>
</g>
<g>
</g>
<g>
</g>
<g>
</g>
<g>
</g>
<g>
</g>
</svg>
