<?xml version="1.0" encoding="iso-8859-1"?>
<!-- Generator: Adobe Illustrator 19.0.0, SVG Export Plug-In . SVG Version: 6.00 Build 0)  -->
<svg version="1.1" id="Capa_1" xmlns="http://www.w3.org/2000/svg" xmlns:xlink="http://www.w3.org/1999/xlink" x="0px" y="0px"
	 viewBox="0 0 440 440" style="enable-background:new 0 0 440 440;" xml:space="preserve">
<g>
	<path style="fill:#D29B88;" d="M204.72,83.76h30.6c9.197,0,16.658,7.444,16.68,16.64v33.44c-0.044,9.15-7.45,16.556-16.6,16.6
		h-30.68c-9.212,0.022-16.698-7.428-16.72-16.64c0,0,0,0,0,0v-33.4c0.044-9.15,7.45-16.556,16.6-16.6"/>
	<path style="fill:#3E425B;" d="M119.04,0h201.92c14.407,0.044,26.076,11.713,26.12,26.12v48
		c-0.044,14.407-11.713,26.076-26.12,26.12H119.04c-14.407-0.044-26.076-11.713-26.12-26.12v-48
		C92.964,11.713,104.633,0.044,119.04,0"/>
	<path style="fill:#D29B88;" d="M99.72,37.08h240.56c3.756,0,6.8,3.044,6.8,6.8V56.4c0,3.756-3.044,6.8-6.8,6.8H99.72
		c-3.756,0-6.8-3.044-6.8-6.8v0V44c0-3.756,3.044-6.8,6.8-6.8l0,0"/>
	<path style="fill:#3E425B;" d="M197.28,440h45.44c9.536-0.365,16.971-8.392,16.606-17.928c-0.002-0.051-0.004-0.101-0.006-0.152
		l-7.32-279c0.254-9.519-7.094-17.522-16.6-18.08h-30.68c-9.554,0.496-16.971,8.516-16.72,18.08L180.6,422
		c-0.403,9.535,7,17.591,16.535,17.994C197.183,439.997,197.232,439.998,197.28,440"/>
</g>
<g>
</g>
<g>
</g>
<g>
</g>
<g>
</g>
<g>
</g>
<g>
</g>
<g>
</g>
<g>
</g>
<g>
</g>
<g>
</g>
<g>
</g>
<g>
</g>
<g>
</g>
<g>
</g>
<g>
</g>
</svg>
