<?xml version="1.0" encoding="iso-8859-1"?>
<!-- Generator: Adobe Illustrator 19.0.0, SVG Export Plug-In . SVG Version: 6.00 Build 0)  -->
<svg version="1.1" id="Capa_1" xmlns="http://www.w3.org/2000/svg" xmlns:xlink="http://www.w3.org/1999/xlink" x="0px" y="0px"
	 viewBox="0 0 440 440" style="enable-background:new 0 0 440 440;" xml:space="preserve">
<g>
	<path style="fill:#3E425B;" d="M256.72,319.36v-38c0-4.6-5.08-8.4-11.24-8.4H235.2v-28c12.8-4.32,21.52-13.88,21.52-24.96
		s-8.72-20.64-21.52-24.96v-28h10.24c6.2,0,11.24-3.8,11.24-8.4v-38c0-4.6-5.08-8.4-11.24-8.4H235.2V90.52
		c12.68-4.32,21.52-13.84,21.52-24.96c0-15.12-16.44-27.4-36.72-27.4s-36.72,12.28-36.72,27.4c0,11.08,8.8,20.64,21.52,24.96v21.72
		h-10.28c-6.2,0-11.24,3.76-11.24,8.4v38c0,4.6,5.08,8.4,11.24,8.4h10.28v28c-12.8,4.32-21.52,13.88-21.52,24.96
		s8.8,20.64,21.52,24.96v28h-10.28c-6.2,0-11.24,3.76-11.24,8.4v38c0,4.6,5.08,8.4,11.24,8.4h10.28v21.72
		c-12.68,4.32-21.52,13.84-21.52,24.96c0,15.12,16.44,27.4,36.72,27.4s36.72-12.28,36.72-27.4c0-11.08-8.8-20.64-21.52-24.96v-21.72
		h10.24c6.2,0,11.24-3.76,11.24-8.4 M304,44.64c0.022-12.075,9.805-21.858,21.88-21.88c12.075,0.022,21.858,9.805,21.88,21.88
		v350.72c-0.022,12.075-9.805,21.858-21.88,21.88c-12.075-0.022-21.858-9.805-21.88-21.88v10.04
		c-0.088,19.073-15.527,34.512-34.6,34.6h-98.8c-19.073-0.088-34.512-15.527-34.6-34.6v-10.04
		c-0.022,12.075-9.805,21.858-21.88,21.88c-12.075-0.022-21.858-9.805-21.88-21.88V44.64c0.022-12.075,9.805-21.858,21.88-21.88
		c12.075,0.022,21.858,9.805,21.88,21.88V34.6c0.088-19.073,15.527-34.512,34.6-34.6h98.8c19.073,0.088,34.512,15.527,34.6,34.6
		L304,44.64z"/>
	<g>
		<path style="fill:#D29B88;" d="M92.2,44.64v350.72c0.022,12.075,9.805,21.858,21.88,21.88V22.76
			C102.005,22.782,92.222,32.565,92.2,44.64"/>
		<path style="fill:#D29B88;" d="M347.8,44.64v350.72c-0.022,12.075-9.805,21.858-21.88,21.88V22.76
			C337.995,22.782,347.778,32.565,347.8,44.64"/>
	</g>
</g>
<g>
</g>
<g>
</g>
<g>
</g>
<g>
</g>
<g>
</g>
<g>
</g>
<g>
</g>
<g>
</g>
<g>
</g>
<g>
</g>
<g>
</g>
<g>
</g>
<g>
</g>
<g>
</g>
<g>
</g>
</svg>
