<?xml version="1.0" encoding="iso-8859-1"?>
<!-- Generator: Adobe Illustrator 19.0.0, SVG Export Plug-In . SVG Version: 6.00 Build 0)  -->
<svg version="1.1" id="Capa_1" xmlns="http://www.w3.org/2000/svg" xmlns:xlink="http://www.w3.org/1999/xlink" x="0px" y="0px"
	 viewBox="0 0 422.64 422.64" style="enable-background:new 0 0 422.64 422.64;" xml:space="preserve">
<g>
	<path style="fill:#D29B88;" d="M159.96,354.52h102.76v59.16c-0.022,4.939-4.021,8.938-8.96,8.96h-84.84
		c-4.939-0.022-8.938-4.021-8.96-8.96V354.52z"/>
	<g>
		<path style="fill:#3E425B;" d="M240.56,422.64h-58.48c0.006-16.149,13.102-29.235,29.251-29.229
			C227.471,393.417,240.554,406.5,240.56,422.64"/>
		<path style="fill:#3E425B;" d="M159.96,354.52h102.76L308.24,13.6c1-7.36-6.08-13.52-13.52-13.52h-166.8
			c-7.44,0-14.52,6.16-13.52,13.52L159.96,354.52z"/>
	</g>
	<g>
		<path style="fill:#D29B88;" d="M305.44,34.56l2.56-19.2h-1.28h-36.84V0.08H250.6v15.28h-29.68V0.08h-19.24V15.6H172V0h-19.28
			v15.76h-36.76h-1.28l2.56,19.16h44h1.16h1.2h45.76c0.652,0.067,1.308,0.067,1.96,0c0.672,0.003,1.342-0.064,2-0.2h44.4
			c1.663,0.452,3.417,0.452,5.08,0L305.44,34.56z"/>
		<path style="fill:#D29B88;" d="M172.8,70.36h77.04c5.337,0.022,9.658,4.343,9.68,9.68v77.08c-0.022,5.337-4.343,9.658-9.68,9.68
			H172.8c-5.337-0.022-9.658-4.343-9.68-9.68V80.04C163.142,74.703,167.463,70.382,172.8,70.36"/>
	</g>
</g>
<g>
</g>
<g>
</g>
<g>
</g>
<g>
</g>
<g>
</g>
<g>
</g>
<g>
</g>
<g>
</g>
<g>
</g>
<g>
</g>
<g>
</g>
<g>
</g>
<g>
</g>
<g>
</g>
<g>
</g>
</svg>
