<?xml version="1.0" encoding="iso-8859-1"?>
<!-- Generator: Adobe Illustrator 19.0.0, SVG Export Plug-In . SVG Version: 6.00 Build 0)  -->
<svg version="1.1" id="Capa_1" xmlns="http://www.w3.org/2000/svg" xmlns:xlink="http://www.w3.org/1999/xlink" x="0px" y="0px"
	 viewBox="0 0 432 432" style="enable-background:new 0 0 432 432;" xml:space="preserve">
<path style="fill:#D29B88;" d="M54.9,126.16h34.84c5.324-0.001,9.641,4.314,9.642,9.638c0,0.067-0.001,0.135-0.002,0.202
	c-1.193,64.407,50.053,117.587,114.46,118.78s117.587-50.053,118.78-114.46c0.027-1.44,0.027-2.88,0-4.32
	c0-5.324,4.316-9.64,9.64-9.64l0,0h34.84c5.324-0.022,9.658,4.276,9.68,9.6c0,0.013,0,0.027,0,0.04
	c0,94.319-76.461,170.78-170.78,170.78S45.22,230.32,45.22,136c0-5.324,4.316-9.64,9.64-9.64 M80.38,145.68H64.86
	C70.295,229.164,142.378,292.435,225.861,287c75.907-4.942,136.378-65.412,141.319-141.319h-15.56
	c-5.756,74.89-71.133,130.933-146.023,125.177C138.709,265.716,85.562,212.569,80.42,145.68H80.38z"/>
<g>
	<g>
		<path style="fill:#3E425B;" d="M141.58,384h148.88c13.255,0,24,10.745,24,24s-10.745,24-24,24H141.58c-13.255,0-24-10.745-24-24
			S128.325,384,141.58,384"/>
		<path style="fill:#3E425B;" d="M216.02,9.56c69.743,0,126.28,56.538,126.28,126.28c0,69.743-56.538,126.28-126.28,126.28
			c-69.68,0-126.192-56.44-126.28-126.12C89.652,66.258,146.118,9.649,215.86,9.561C215.913,9.56,215.967,9.56,216.02,9.56"/>
	</g>
	<path style="fill:#FFFFFF;" d="M124.58,48.76c5.508-5.782,11.548-11.032,18.04-15.68L316.7,207.12L299.82,224L124.58,48.76z
		 M112.82,63.04c1.467-2.08,3-4.107,4.6-6.08l174.6,174.72L286.7,237L112.82,63.04z"/>
</g>
<g>
	<path style="fill:#D29B88;" d="M298.5,53.36C252.951,7.808,179.099,7.805,133.546,53.355s-45.555,119.401-0.006,164.954
		s119.402,45.555,164.954,0.006C320.33,196.48,332.616,166.879,332.66,136c0.041-30.943-12.253-60.627-34.16-82.48 M216.02,0
		c75.111-0.184,136.149,60.556,136.333,135.666c0.184,75.11-60.556,136.149-135.666,136.333
		c-75.11,0.184-136.149-60.556-136.333-135.666C80.265,100.23,94.536,65.573,120.02,40C145.427,14.43,179.974,0.036,216.02,0z"/>
	<path style="fill:#D29B88;" d="M216.02,253.72c10.89,0.108,19.692,8.91,19.8,19.8v114.76c0,10.935-8.865,19.8-19.8,19.8
		c-10.935,0-19.8-8.865-19.8-19.8V273.52C196.329,262.63,205.13,253.829,216.02,253.72"/>
</g>
<g>
</g>
<g>
</g>
<g>
</g>
<g>
</g>
<g>
</g>
<g>
</g>
<g>
</g>
<g>
</g>
<g>
</g>
<g>
</g>
<g>
</g>
<g>
</g>
<g>
</g>
<g>
</g>
<g>
</g>
</svg>
