<?xml version="1.0" encoding="iso-8859-1"?>
<!-- Generator: Adobe Illustrator 19.0.0, SVG Export Plug-In . SVG Version: 6.00 Build 0)  -->
<svg version="1.1" id="Capa_1" xmlns="http://www.w3.org/2000/svg" xmlns:xlink="http://www.w3.org/1999/xlink" x="0px" y="0px"
	 viewBox="0 0 414.981 414.981" style="enable-background:new 0 0 414.981 414.981;" xml:space="preserve">
<g>
	<path style="fill:#3E425B;" d="M211.24,26.461h31.2c4.078,0.022,7.378,3.322,7.4,7.4v56c-0.022,4.078-3.322,7.378-7.4,7.4h-31.2
		c-4.078-0.022-7.378-3.322-7.4-7.4v-56C203.862,29.783,207.163,26.483,211.24,26.461"/>
	<path style="fill:#FFFFFF;" d="M203.84,62.821v-21.04h0.88c5.821,0.359,10.249,5.369,9.89,11.19c-0.328,5.321-4.57,9.562-9.89,9.89
		h-0.88"/>
	<path style="fill:#D29B88;" d="M183.48,146.821h86.88c5.425-0.022,9.818-4.415,9.84-9.84v-41.52
		c-0.022-5.425-4.415-9.818-9.84-9.84h-86.88c-5.456-0.044-9.916,4.343-9.96,9.8c0,0.013,0,0.027,0,0.04v41.52
		c0.022,5.457,4.463,9.862,9.92,9.84C183.454,146.821,183.467,146.821,183.48,146.821"/>
	<path style="fill:#3E425B;" d="M169.52,125.301H284.2c15.057,0.022,27.258,12.223,27.28,27.28v235.16
		c-0.044,15.026-12.214,27.196-27.24,27.24H169.52c-15.026-0.044-27.196-12.214-27.24-27.24v-235.16
		c0.044-15.026,12.214-27.196,27.24-27.24"/>
</g>
<g>
	<path style="fill:#D29B88;" d="M113.16,55.701c-5.335,0-9.66-4.325-9.66-9.66c0-5.335,4.325-9.66,9.66-9.66h44.4
		c5.335,0,9.66,4.325,9.66,9.66c0,5.335-4.325,9.66-9.66,9.66H113.16z"/>
	<path style="fill:#D29B88;" d="M122.12,91.741c-5.091,1.556-10.481-1.309-12.037-6.401c-1.556-5.091,1.31-10.481,6.401-12.037
		c0.144-0.044,0.29-0.085,0.436-0.122l42.56-12.12c5.244-0.922,10.242,2.581,11.164,7.825c0.783,4.45-1.63,8.846-5.804,10.575
		L122.12,91.741z"/>
	<path style="fill:#D29B88;" d="M116.92,18.861c-5.091-1.556-7.957-6.945-6.401-12.037c1.505-4.923,6.613-7.795,11.601-6.523
		l42.72,12c5.158,1.48,8.14,6.862,6.66,12.02c-1.48,5.158-6.862,8.14-12.02,6.66l0,0L116.92,18.861z"/>
</g>
<g>
</g>
<g>
</g>
<g>
</g>
<g>
</g>
<g>
</g>
<g>
</g>
<g>
</g>
<g>
</g>
<g>
</g>
<g>
</g>
<g>
</g>
<g>
</g>
<g>
</g>
<g>
</g>
<g>
</g>
</svg>
