<?xml version="1.0" encoding="iso-8859-1"?>
<!-- Generator: Adobe Illustrator 19.0.0, SVG Export Plug-In . SVG Version: 6.00 Build 0)  -->
<svg version="1.1" id="Capa_1" xmlns="http://www.w3.org/2000/svg" xmlns:xlink="http://www.w3.org/1999/xlink" x="0px" y="0px"
	 viewBox="0 0 422.52 422.52" style="enable-background:new 0 0 422.52 422.52;" xml:space="preserve">
<g>
	<path style="fill:#3E425B;" d="M134.296,0h153.92c15.44,0,29.88,12.76,28,28l-35.64,296c-1.84,15.28-12.64,28-28,28h-82.64
		c-15.4,0-26.2-12.72-28-28l-35.64-296C104.457,12.68,118.937,0,134.296,0"/>
	<g>
		<path style="fill:#D29B88;" d="M316.336,27.28v0.84l-2.28,18.36l-205.52,0.44l-2.28-18.84v-0.4L316.336,27.28z"/>
		<path style="fill:#D29B88;" d="M304.656,124.36l-14.44,120.04h-157.92l-14.44-120.04L304.656,124.36z"/>
		<path style="fill:#D29B88;" d="M182.336,352.16h57.84V399c-0.044,12.971-10.548,23.476-23.52,23.52h-10.8
			c-12.972-0.044-23.476-10.548-23.52-23.52L182.336,352.16z"/>
	</g>
</g>
<g>
</g>
<g>
</g>
<g>
</g>
<g>
</g>
<g>
</g>
<g>
</g>
<g>
</g>
<g>
</g>
<g>
</g>
<g>
</g>
<g>
</g>
<g>
</g>
<g>
</g>
<g>
</g>
<g>
</g>
</svg>
