<?xml version="1.0" encoding="iso-8859-1"?>
<!-- Generator: Adobe Illustrator 19.0.0, SVG Export Plug-In . SVG Version: 6.00 Build 0)  -->
<svg version="1.1" id="Capa_1" xmlns="http://www.w3.org/2000/svg" xmlns:xlink="http://www.w3.org/1999/xlink" x="0px" y="0px"
	 viewBox="0 0 459.24 459.24" style="enable-background:new 0 0 459.24 459.24;" xml:space="preserve">
<g>
	<path style="fill:#3E425B;" d="M116,103.52c-5.335,0-9.66-4.325-9.66-9.66c0-5.335,4.325-9.66,9.66-9.66h128.28
		c5.335,0,9.66,4.325,9.66,9.66c0,5.335-4.325,9.66-9.66,9.66H116z"/>
	<path style="fill:#3E425B;" d="M116,137.64c-5.335,0-9.66-4.325-9.66-9.66s4.325-9.66,9.66-9.66h128.28
		c5.335,0,9.66,4.325,9.66,9.66s-4.325,9.66-9.66,9.66H116z"/>
	<path style="fill:#3E425B;" d="M116,171.4c-5.335,0-9.66-4.325-9.66-9.66c0-5.335,4.325-9.66,9.66-9.66h128.28
		c5.335,0,9.66,4.325,9.66,9.66s-4.325,9.66-9.66,9.66L116,171.4z"/>
	<path style="fill:#3E425B;" d="M116,205.36c-5.335,0-9.66-4.325-9.66-9.66s4.325-9.66,9.66-9.66h128.28
		c5.335,0,9.66,4.325,9.66,9.66s-4.325,9.66-9.66,9.66H116z"/>
	<path style="fill:#3E425B;" d="M116,239.28c-5.335,0-9.66-4.325-9.66-9.66c0-5.335,4.325-9.66,9.66-9.66h128.28
		c5.335,0,9.66,4.325,9.66,9.66c0,5.335-4.325,9.66-9.66,9.66H116z"/>
	<path style="fill:#3E425B;" d="M116,273.24c-5.335,0-9.66-4.325-9.66-9.66s4.325-9.66,9.66-9.66h128.28
		c5.335,0,9.66,4.325,9.66,9.66s-4.325,9.66-9.66,9.66H116z"/>
	<path style="fill:#3E425B;" d="M116,307.2c-5.335,0-9.66-4.325-9.66-9.66s4.325-9.66,9.66-9.66h128.28
		c5.335,0,9.66,4.325,9.66,9.66s-4.325,9.66-9.66,9.66H116z"/>
	<path style="fill:#3E425B;" d="M116,341.12c-5.335,0-9.66-4.325-9.66-9.66s4.325-9.66,9.66-9.66h128.28
		c5.335,0,9.66,4.325,9.66,9.66s-4.325,9.66-9.66,9.66H116z"/>
	<path style="fill:#3E425B;" d="M116,375.08c-5.335,0-9.66-4.325-9.66-9.66s4.325-9.66,9.66-9.66h128.28
		c5.335,0,9.66,4.325,9.66,9.66s-4.325,9.66-9.66,9.66H116z"/>
	<path style="fill:#3E425B;" d="M115.96,18.04L314.24,0h3c9.266,0.072,18.115,3.863,24.56,10.52c6.336,6.502,10.271,14.965,11.16,24
		V38v383.08v3.48c-0.889,9.035-4.824,17.498-11.16,24c-6.447,6.746-15.349,10.598-24.68,10.68c-0.72,0-1.72,0-3,0l-199.08-18.12
		c-4.962-0.455-8.76-4.617-8.76-9.6v-29.68c0.022-5.315,4.325-9.618,9.64-9.64h114.12c2.531-0.022,4.578-2.069,4.6-4.6v-316
		c-0.022-2.531-2.069-4.578-4.6-4.6H116c-5.324,0-9.64-4.316-9.64-9.64V27.68c0-5.324,4.316-9.64,9.64-9.64"/>
</g>
<g>
</g>
<g>
</g>
<g>
</g>
<g>
</g>
<g>
</g>
<g>
</g>
<g>
</g>
<g>
</g>
<g>
</g>
<g>
</g>
<g>
</g>
<g>
</g>
<g>
</g>
<g>
</g>
<g>
</g>
</svg>
