<?xml version="1.0" encoding="iso-8859-1"?>
<!-- Generator: Adobe Illustrator 19.0.0, SVG Export Plug-In . SVG Version: 6.00 Build 0)  -->
<svg version="1.1" id="Capa_1" xmlns="http://www.w3.org/2000/svg" xmlns:xlink="http://www.w3.org/1999/xlink" x="0px" y="0px"
	 viewBox="0 0 434.786 434.786" style="enable-background:new 0 0 434.786 434.786;" xml:space="preserve">
<path style="fill:#D29B88;" d="M110.531,21.514l0.96-0.6c33.545-21.387,78.065-11.664,99.64,21.76l78.2,122.08
	c21.387,33.545,11.664,78.065-21.76,99.64l-0.96,0.6c-33.545,21.387-78.065,11.664-99.64-21.76l-78.24-121.72
	C67.128,87.919,76.85,43.172,110.445,21.569C110.473,21.551,110.502,21.532,110.531,21.514"/>
<g>
	<path style="fill:#3E425B;" d="M116.691,29.154l-0.96,0.6c-28.916,18.745-37.293,57.308-18.76,86.36l78.08,121.92
		c18.717,28.919,57.255,37.331,86.32,18.84l0.96-0.6c28.933-18.704,37.363-57.245,18.88-86.32l-78.2-121.92
		c-18.717-28.919-57.255-37.331-86.32-18.84 M105.291,13.514l0.96-0.6c38.017-24.302,88.526-13.306,113,24.6l78.2,122
		c24.26,38.029,13.23,88.514-24.68,112.96l-0.96,0.6c-38.029,24.26-88.514,13.23-112.96-24.68l-78.2-121.88
		C56.333,88.491,67.351,37.961,105.291,13.514L105.291,13.514z"/>
	<g>
		<path style="fill:#3E425B;" d="M283.851,252.714l100,155.76c3.76,5.84-0.92,15.6-10.36,21.64h-0.28c-9.44,6.08-20.24,6.24-24,0.4
			l-100-155.76c5.874-2.95,11.589-6.208,17.12-9.76l1.56-1c5.532-3.542,10.872-7.374,16-11.48"/>
		<path style="fill:#3E425B;" d="M151.571,40.474c3.487-2.215,8.109-1.184,10.325,2.303c2.215,3.487,1.184,8.109-2.303,10.325
			c-3.473,2.206-8.076,1.193-10.302-2.267c-2.235-3.474-1.23-8.103,2.245-10.337C151.548,40.489,151.559,40.481,151.571,40.474
			 M111.571,66.234c3.487-2.215,8.109-1.184,10.325,2.303c2.215,3.487,1.184,8.109-2.303,10.325
			c-3.473,2.206-8.076,1.193-10.302-2.267c-2.265-3.455-1.3-8.092,2.155-10.357c0.002-0.001,0.004-0.002,0.005-0.003H111.571z"/>
		<path style="fill:#3E425B;" d="M144.971,74.394c3.487-2.215,8.109-1.184,10.325,2.303c2.215,3.487,1.184,8.109-2.303,10.325
			c-3.473,2.206-8.076,1.193-10.302-2.267c-2.235-3.474-1.23-8.103,2.245-10.337C144.948,74.409,144.959,74.401,144.971,74.394
			 M184.971,48.634c3.487-2.215,8.109-1.184,10.325,2.303c2.215,3.487,1.184,8.109-2.303,10.325
			c-3.473,2.206-8.076,1.193-10.302-2.267c-2.235-3.474-1.23-8.103,2.245-10.337C184.948,48.649,184.959,48.641,184.971,48.634z
			 M104.971,100.154c3.487-2.215,8.109-1.184,10.325,2.303s1.184,8.109-2.303,10.325c-3.473,2.206-8.076,1.193-10.302-2.267
			c-2.235-3.474-1.23-8.103,2.245-10.337C104.948,100.169,104.959,100.161,104.971,100.154z"/>
		<path style="fill:#3E425B;" d="M178.331,82.154c3.487-2.215,8.109-1.184,10.325,2.303c2.215,3.487,1.184,8.109-2.303,10.325
			c-3.473,2.206-8.076,1.193-10.302-2.267c-2.235-3.474-1.23-8.103,2.245-10.337C178.308,82.169,178.319,82.161,178.331,82.154
			 M138.331,107.914c3.487-2.215,8.109-1.184,10.325,2.303s1.184,8.109-2.303,10.325c-3.473,2.206-8.076,1.193-10.302-2.267
			c-2.274-3.447-1.325-8.084,2.12-10.36H138.331z"/>
		<path style="fill:#3E425B;" d="M171.731,116.074c3.487-2.215,8.109-1.184,10.325,2.303s1.184,8.109-2.303,10.325
			c-3.473,2.206-8.076,1.193-10.302-2.267c-2.235-3.474-1.23-8.103,2.245-10.337C171.708,116.089,171.719,116.081,171.731,116.074
			 M211.731,90.314c3.487-2.215,8.109-1.184,10.325,2.303s1.184,8.109-2.303,10.325c-3.473,2.206-8.076,1.193-10.302-2.267
			c-2.195-3.499-1.138-8.116,2.361-10.311c0.026-0.016,0.052-0.033,0.079-0.049H211.731z M131.571,141.834
			c3.487-2.215,8.109-1.184,10.325,2.303s1.184,8.109-2.303,10.325c-3.473,2.206-8.076,1.193-10.302-2.267
			c-2.235-3.474-1.23-8.103,2.245-10.337C131.548,141.849,131.559,141.841,131.571,141.834z"/>
		<path style="fill:#3E425B;" d="M204.971,123.834c3.487-2.215,8.109-1.184,10.325,2.303s1.184,8.109-2.303,10.325
			c-3.473,2.206-8.076,1.193-10.302-2.267c-2.235-3.474-1.23-8.103,2.245-10.337C204.948,123.849,204.959,123.841,204.971,123.834
			 M164.971,149.514c3.487-2.215,8.109-1.184,10.325,2.303s1.184,8.109-2.303,10.325c-3.473,2.206-8.076,1.193-10.302-2.267
			c-2.235-3.474-1.23-8.103,2.245-10.337C164.948,149.529,164.959,149.521,164.971,149.514z"/>
		<path style="fill:#3E425B;" d="M198.491,157.754c3.487-2.215,8.109-1.184,10.325,2.303s1.184,8.109-2.303,10.325
			c-3.473,2.206-8.076,1.193-10.302-2.267c-2.235-3.474-1.23-8.103,2.245-10.337C198.468,157.769,198.479,157.761,198.491,157.754
			 M238.491,131.994c3.487-2.215,8.109-1.184,10.325,2.303s1.184,8.109-2.303,10.325c-3.473,2.206-8.076,1.193-10.302-2.267
			c-2.195-3.499-1.138-8.116,2.361-10.311c0.026-0.016,0.052-0.033,0.079-0.049H238.491z M158.331,183.514
			c3.487-2.215,8.109-1.184,10.325,2.303s1.184,8.109-2.303,10.325c-3.473,2.206-8.076,1.193-10.302-2.267
			c-2.235-3.474-1.23-8.103,2.245-10.337C158.308,183.529,158.319,183.521,158.331,183.514z"/>
		<path style="fill:#3E425B;" d="M231.811,165.514c3.487-2.215,8.109-1.184,10.325,2.303s1.184,8.109-2.303,10.325
			c-3.473,2.206-8.076,1.193-10.302-2.267c-2.235-3.474-1.23-8.103,2.245-10.337C231.788,165.529,231.799,165.521,231.811,165.514
			 M191.811,191.274c3.508-2.182,8.12-1.106,10.302,2.402c2.182,3.508,1.106,8.12-2.402,10.302
			c-3.508,2.182-8.12,1.106-10.302-2.402c-0.013-0.021-0.026-0.041-0.038-0.062c-2.162-3.464-1.147-8.021,2.28-10.24H191.811z"/>
		<path style="fill:#3E425B;" d="M225.211,199.434c3.487-2.215,8.109-1.184,10.325,2.303s1.184,8.109-2.303,10.325
			c-3.473,2.206-8.076,1.193-10.302-2.267c-2.235-3.474-1.23-8.103,2.245-10.337C225.188,199.449,225.199,199.441,225.211,199.434
			 M265.371,173.514c3.487-2.215,8.109-1.184,10.325,2.303s1.184,8.109-2.303,10.325c-3.473,2.206-8.076,1.193-10.302-2.267
			c-2.235-3.474-1.23-8.103,2.245-10.337C265.348,173.529,265.359,173.521,265.371,173.514z M184.971,225.194
			c3.487-2.215,8.109-1.184,10.325,2.303c2.215,3.487,1.184,8.109-2.303,10.325c-3.473,2.206-8.076,1.193-10.302-2.267
			c-2.235-3.474-1.23-8.103,2.245-10.337C184.948,225.209,184.959,225.201,184.971,225.194z"/>
		<path style="fill:#3E425B;" d="M258.531,207.194c3.47-2.241,8.1-1.244,10.341,2.226c2.241,3.47,1.244,8.1-2.226,10.341
			c-3.47,2.241-8.1,1.244-10.341-2.226c-0.005-0.007-0.009-0.014-0.014-0.021c-2.235-3.474-1.23-8.103,2.245-10.337
			c0.012-0.008,0.024-0.015,0.035-0.023 M218.571,232.914c3.487-2.215,8.109-1.184,10.325,2.303
			c2.215,3.487,1.184,8.109-2.303,10.325c-3.473,2.206-8.076,1.193-10.302-2.267c-2.255-3.428-1.326-8.033,2.08-10.32
			L218.571,232.914z"/>
	</g>
	<path style="fill:#3E425B;" d="M82.651,114.714c3.048-2.554,7.589-2.153,10.143,0.894c2.554,3.048,2.153,7.589-0.894,10.143
		c-0.455,0.381-0.955,0.704-1.489,0.963l-30.44,19.48c-3.58,1.732-7.885,0.234-9.617-3.346c-1.437-2.97-0.672-6.536,1.857-8.654
		L82.651,114.714z"/>
	<path style="fill:#3E425B;" d="M96.491,136.274c3.048-2.554,7.589-2.153,10.143,0.894c2.554,3.048,2.153,7.589-0.894,10.143
		c-0.455,0.381-0.955,0.704-1.489,0.963l-25.64,16.4c-3.048,2.554-7.589,2.153-10.143-0.894s-2.153-7.589,0.894-10.143
		c0.455-0.381,0.955-0.704,1.489-0.963L96.491,136.274z"/>
	<path style="fill:#3E425B;" d="M110.331,157.834c3.048-2.554,7.589-2.153,10.143,0.894c2.554,3.048,2.153,7.589-0.894,10.143
		c-0.455,0.381-0.955,0.704-1.489,0.963l-30.44,19.68c-3.58,1.732-7.885,0.234-9.617-3.346c-1.437-2.97-0.672-6.536,1.857-8.654
		L110.331,157.834z"/>
	<path style="fill:#3E425B;" d="M124.171,179.434c3.048-2.554,7.589-2.153,10.143,0.894c2.554,3.048,2.153,7.589-0.894,10.143
		c-0.455,0.381-0.955,0.704-1.489,0.963l-25.64,16.4c-3.58,1.732-7.885,0.234-9.617-3.346c-1.437-2.97-0.672-6.536,1.857-8.654
		L124.171,179.434z"/>
	<path style="fill:#3E425B;" d="M137.971,200.994c3.048-2.554,7.589-2.153,10.143,0.894c2.554,3.048,2.153,7.589-0.894,10.143
		c-0.455,0.381-0.955,0.704-1.489,0.963l-30.44,19.48c-3.58,1.732-7.885,0.234-9.617-3.346c-1.437-2.97-0.672-6.536,1.857-8.654
		L137.971,200.994z"/>
	<path style="fill:#3E425B;" d="M151.811,222.554c3.048-2.554,7.589-2.153,10.143,0.894s2.153,7.589-0.894,10.143
		c-0.455,0.381-0.955,0.704-1.489,0.963l-25.64,16.4c-3.58,1.732-7.885,0.234-9.617-3.346c-1.437-2.97-0.672-6.536,1.857-8.654
		L151.811,222.554z"/>
	<path style="fill:#3E425B;" d="M165.651,244.114c3.048-2.554,7.589-2.153,10.143,0.894s2.153,7.589-0.894,10.143
		c-0.455,0.381-0.955,0.704-1.489,0.963l-30.44,19.64c-3.048,2.554-7.589,2.153-10.143-0.894s-2.153-7.589,0.894-10.143
		c0.455-0.381,0.955-0.704,1.489-0.963L165.651,244.114z"/>
	<path style="fill:#3E425B;" d="M214.131,47.514c-3.116,2.506-7.673,2.012-10.179-1.104s-2.012-7.673,1.104-10.179
		c0.336-0.271,0.696-0.51,1.075-0.717l30.36-19.56c3.116-2.506,7.673-2.012,10.179,1.104s2.012,7.673-1.104,10.179
		c-0.336,0.271-0.696,0.51-1.075,0.717L214.131,47.514z"/>
	<path style="fill:#3E425B;" d="M227.971,69.114c-3.116,2.506-7.673,2.012-10.179-1.104c-2.506-3.116-2.012-7.673,1.104-10.179
		c0.336-0.271,0.696-0.51,1.075-0.717l25.6-16.48c3.512-1.912,7.909-0.616,9.821,2.896c1.675,3.076,0.908,6.909-1.821,9.104
		L227.971,69.114z"/>
	<path style="fill:#3E425B;" d="M241.811,90.674c-3.512,1.912-7.909,0.616-9.821-2.896c-1.675-3.076-0.908-6.909,1.821-9.104
		l30.36-19.56c3.512-1.912,7.909-0.616,9.821,2.896c1.675,3.076,0.908,6.909-1.821,9.104L241.811,90.674z"/>
	<path style="fill:#3E425B;" d="M255.651,112.234c-3.116,2.506-7.673,2.012-10.179-1.104s-2.012-7.673,1.104-10.179
		c0.336-0.271,0.696-0.51,1.075-0.717l25.6-16.48c3.116-2.506,7.673-2.012,10.179,1.104s2.012,7.673-1.104,10.179
		c-0.336,0.271-0.696,0.51-1.075,0.717L255.651,112.234z"/>
	<path style="fill:#3E425B;" d="M269.491,133.794c-3.512,1.912-7.909,0.616-9.821-2.896c-1.675-3.076-0.908-6.909,1.821-9.104
		l30.36-19.52c3.512-1.912,7.909-0.616,9.821,2.896c1.675,3.076,0.908,6.909-1.821,9.104L269.491,133.794z"/>
	<path style="fill:#3E425B;" d="M283.331,155.354c-3.512,1.912-7.909,0.616-9.821-2.896c-1.675-3.076-0.908-6.909,1.821-9.104
		l25.64-16.64c3.116-2.506,7.673-2.012,10.179,1.104s2.012,7.673-1.104,10.179c-0.336,0.271-0.696,0.51-1.075,0.717L283.331,155.354
		z"/>
	<path style="fill:#3E425B;" d="M296.971,176.954c-3.512,1.912-7.909,0.616-9.821-2.896c-1.675-3.076-0.908-6.909,1.821-9.104
		l30.36-19.52c3.116-2.506,7.673-2.012,10.179,1.104s2.012,7.673-1.104,10.179c-0.336,0.271-0.696,0.51-1.075,0.717L296.971,176.954
		z"/>
</g>
<g>
</g>
<g>
</g>
<g>
</g>
<g>
</g>
<g>
</g>
<g>
</g>
<g>
</g>
<g>
</g>
<g>
</g>
<g>
</g>
<g>
</g>
<g>
</g>
<g>
</g>
<g>
</g>
<g>
</g>
</svg>
