<?xml version="1.0" encoding="iso-8859-1"?>
<!-- Generator: Adobe Illustrator 19.0.0, SVG Export Plug-In . SVG Version: 6.00 Build 0)  -->
<svg version="1.1" id="Capa_1" xmlns="http://www.w3.org/2000/svg" xmlns:xlink="http://www.w3.org/1999/xlink" x="0px" y="0px"
	 viewBox="0 0 432.169 432.169" style="enable-background:new 0 0 432.169 432.169;" xml:space="preserve">
<g>
	<path style="fill:#3E425B;" d="M97.54,62.919l19.24-12.36l71.04-45.56c14.729-9.416,34.3-5.141,43.76,9.56l2.12,3.32
		c1.396,2.279,0.68,5.259-1.599,6.655c-0.014,0.008-0.027,0.017-0.041,0.025l-80.96,52l112.96,175.56l77.64-50
		c2.235-1.415,5.192-0.774,6.64,1.44l2.12,3.32c9.416,14.729,5.141,34.3-9.56,43.76l-55.2,35.4l60.36,94.08
		c4.025,5.753,5.946,12.717,5.44,19.72c-0.88,8-5.64,16.56-18.28,24.68c-7.252,5.374-16.146,8.061-25.16,7.6
		c-8.375-1.089-15.767-6.012-20-13.32l-78.04-121.84l-1.96-3.32L90.1,109.999l-2.04-3.32l-8.96-13.96
		c-4.496-7.01-2.458-16.338,4.552-20.835c0.003-0.002,0.005-0.003,0.008-0.005L97.54,62.919z"/>
	<path style="fill:#3E425B;" d="M164.06,105.199c-4.485,2.872-10.448,1.565-13.32-2.92c-2.872-4.485-1.565-10.448,2.92-13.32
		l82.16-52.84c4.485-2.872,10.448-1.565,13.32,2.92c2.872,4.485,1.565,10.448-2.92,13.32L164.06,105.199z"/>
	<path style="fill:#3E425B;" d="M178.94,128.439c-4.507,2.883-10.497,1.567-13.38-2.94s-1.567-10.497,2.94-13.38l0,0l82.24-52.64
		c4.485-2.872,10.448-1.565,13.32,2.92c2.872,4.485,1.565,10.448-2.92,13.32L178.94,128.439z"/>
	<path style="fill:#3E425B;" d="M193.86,151.679c-4.485,2.872-10.448,1.565-13.32-2.92c-2.872-4.485-1.565-10.448,2.92-13.32
		l82.2-52.72c4.485-2.872,10.448-1.565,13.32,2.92s1.565,10.448-2.92,13.32L193.86,151.679z"/>
	<path style="fill:#3E425B;" d="M208.74,174.959c-4.485,2.872-10.448,1.565-13.32-2.92c-2.872-4.485-1.565-10.448,2.92-13.32l0,0
		l82.24-52.72c4.485-2.872,10.448-1.565,13.32,2.92c2.872,4.485,1.565,10.448-2.92,13.32L208.74,174.959z"/>
	<path style="fill:#3E425B;" d="M223.66,198.199c-4.485,2.872-10.448,1.565-13.32-2.92c-2.872-4.485-1.565-10.448,2.92-13.32
		l82.24-52.72c4.485-2.872,10.448-1.565,13.32,2.92c2.872,4.485,1.565,10.448-2.92,13.32l0,0L223.66,198.199z"/>
	<path style="fill:#3E425B;" d="M238.58,221.439c-4.474,2.905-10.455,1.634-13.36-2.84c-2.905-4.474-1.634-10.455,2.84-13.36l0,0
		l82.32-52.76c4.485-2.872,10.448-1.565,13.32,2.92c2.872,4.485,1.565,10.448-2.92,13.32l0,0L238.58,221.439z"/>
	<path style="fill:#3E425B;" d="M253.5,244.719c-4.485,2.872-10.448,1.565-13.32-2.92c-2.872-4.485-1.565-10.448,2.92-13.32l0,0
		l82.2-52.72c4.518-2.883,10.517-1.558,13.4,2.96c2.883,4.518,1.558,10.517-2.96,13.4L253.5,244.719z"/>
</g>
<g>
</g>
<g>
</g>
<g>
</g>
<g>
</g>
<g>
</g>
<g>
</g>
<g>
</g>
<g>
</g>
<g>
</g>
<g>
</g>
<g>
</g>
<g>
</g>
<g>
</g>
<g>
</g>
<g>
</g>
</svg>
