<?xml version="1.0" encoding="iso-8859-1"?>
<!-- Generator: Adobe Illustrator 19.0.0, SVG Export Plug-In . SVG Version: 6.00 Build 0)  -->
<svg version="1.1" id="Capa_1" xmlns="http://www.w3.org/2000/svg" xmlns:xlink="http://www.w3.org/1999/xlink" x="0px" y="0px"
	 viewBox="0 0 425.068 425.068" style="enable-background:new 0 0 425.068 425.068;" xml:space="preserve">
<g>
	<path style="fill:#3E425B;" d="M259.294,85.814c2.372,3.55,3.626,7.73,3.6,12v229.6c0.026,4.27-1.228,8.45-3.6,12h-93.52
		c-2.372-3.55-3.626-7.73-3.6-12V97.654c-0.026-4.27,1.228-8.45,3.6-12L259.294,85.814z"/>
	<g>
		<path style="fill:#D29B88;" d="M262.854,159.214v61.32l-100.64-100.52v-22.36c-0.026-4.27,1.228-8.45,3.6-12h23.68
			L262.854,159.214z"/>
		<path style="fill:#D29B88;" d="M262.854,305.054v22.32c0.026,4.27-1.228,8.45-3.6,12h-23.64l-73.4-73.52v-61.32L262.854,305.054z"
			/>
		<path style="fill:#D29B88;" d="M153.254,85.814h118.56c10.328,0,18.7-8.372,18.7-18.7s-8.372-18.7-18.7-18.7h-118.56
			c-10.328,0-18.7,8.372-18.7,18.7S142.926,85.814,153.254,85.814 M153.254,376.694h118.56c10.328,0,18.7-8.372,18.7-18.7
			c0-10.328-8.372-18.7-18.7-18.7h-118.56c-10.328,0-18.7,8.372-18.7,18.7C134.554,368.321,142.926,376.694,153.254,376.694z"/>
	</g>
	<g>
		<path style="fill:#3E425B;" d="M212.534,376.534h-47.16c-0.758,26.035,19.732,47.755,45.767,48.513s47.755-19.732,48.513-45.767
			c0.027-0.915,0.027-1.831,0-2.747H212.534z"/>
		<path style="fill:#3E425B;" d="M212.534,48.534h-47.16C164.615,22.499,185.106,0.779,211.14,0.02s47.755,19.732,48.513,45.767
			c0.027,0.915,0.027,1.831,0,2.747H212.534z"/>
	</g>
</g>
<g>
</g>
<g>
</g>
<g>
</g>
<g>
</g>
<g>
</g>
<g>
</g>
<g>
</g>
<g>
</g>
<g>
</g>
<g>
</g>
<g>
</g>
<g>
</g>
<g>
</g>
<g>
</g>
<g>
</g>
</svg>
