<svg height="512" viewBox="0 0 192 192" width="512" xmlns="http://www.w3.org/2000/svg" xmlns:xlink="http://www.w3.org/1999/xlink"><linearGradient id="New_Gradient_Swatch_1" gradientUnits="userSpaceOnUse" x1="28.15" x2="163.85" y1="163.85" y2="28.15"><stop offset="0" stop-color="#34cdfa"/><stop offset="1" stop-color="#e8d9f1"/></linearGradient><g id="_01-steer" data-name="01-steer"><path d="m96 0a96 96 0 1 0 96 96 96.108 96.108 0 0 0 -96-96zm-67.2 118.869a281.5 281.5 0 0 1 43.271-6.081s4.65 18.353 6.829 52.112a71.264 71.264 0 0 1 -50.1-46.031zm67.2-6.869a8 8 0 1 1 8-8 8 8 0 0 1 -8 8zm17.1 52.906c2.176-33.778 6.832-52.118 6.832-52.118a281.412 281.412 0 0 1 43.271 6.084 71.266 71.266 0 0 1 -50.103 46.034zm-17.1-84.906a209.053 209.053 0 0 0 -70.916 12.69 70.988 70.988 0 0 1 141.845.531 201.7 201.7 0 0 0 -70.929-13.221z" fill="url(#New_Gradient_Swatch_1)"/></g></svg>