<svg height="512" viewBox="0 0 192 192" width="512" xmlns="http://www.w3.org/2000/svg" xmlns:xlink="http://www.w3.org/1999/xlink"><linearGradient id="New_Gradient_Swatch_1" gradientUnits="userSpaceOnUse" x1="16.179" x2="100.106" y1="84.226" y2=".299"><stop offset="0" stop-color="#34cdfa"/><stop offset="1" stop-color="#e8d9f1"/></linearGradient><g id="_02-brake" data-name="02-brake"><g id="Flat"><circle cx="96" cy="104" fill="#e6f9fe" r="88"/><path d="m120 176a87.955 87.955 0 0 1 -60.032-152.28 87.984 87.984 0 1 0 96.064 144.56 87.491 87.491 0 0 1 -36.032 7.72z" fill="#ccf2fe"/><circle cx="96" cy="104" fill="#67d9fb" r="40"/><g fill="#ccf2fe"><circle cx="80" cy="104" r="8"/><circle cx="112" cy="104" r="8"/><circle cx="96" cy="88" r="8"/><circle cx="96" cy="120" r="8"/></g><path d="m96.547.006-.547-.006a104.215 104.215 0 0 0 -95.024 61.754 8 8 0 0 0 4.056 10.57l29.253 13a8 8 0 0 0 10.555-4.049 56.122 56.122 0 0 1 51.16-33.275h-.021c.149.006.3.01.451.011a8 8 0 0 0 8.07-8v-32.005a8 8 0 0 0 -7.953-8z" fill="url(#New_Gradient_Swatch_1)"/></g></g></svg>