<svg height="512" viewBox="0 0 192 192" width="512" xmlns="http://www.w3.org/2000/svg" xmlns:xlink="http://www.w3.org/1999/xlink"><linearGradient id="New_Gradient_Swatch_1" gradientUnits="userSpaceOnUse" x1="27.883" x2="164.117" y1="164.117" y2="27.883"><stop offset="0" stop-color="#34cdfa"/><stop offset="1" stop-color="#e8d9f1"/></linearGradient><g id="_03-tire" data-name="03-tire"><g id="Flat"><path d="m184 96c0-2.472-.108-4.919-.309-7.339l8.24-1.453-2.778-15.757-8.235 1.449a87.277 87.277 0 0 0 -5.032-13.787l7.253-4.188-8-13.856-7.272 4.2a88.792 88.792 0 0 0 -9.436-11.226l5.405-6.441-12.256-10.285-5.4 6.435a88.092 88.092 0 0 0 -12.693-7.352l2.865-7.87-15.036-5.477-2.859 7.855a87.471 87.471 0 0 0 -14.457-2.541v-8.367h-16v8.367a87.483 87.483 0 0 0 -14.458 2.541l-2.858-7.854-15.036 5.471 2.865 7.875a88.053 88.053 0 0 0 -12.693 7.352l-5.4-6.435-12.256 10.283 5.405 6.441a88.792 88.792 0 0 0 -9.436 11.229l-7.272-4.2-8 13.856 7.253 4.188a87.277 87.277 0 0 0 -5.032 13.786l-8.234-1.449-2.779 15.757 8.24 1.453c-.201 2.42-.309 4.867-.309 7.339s.108 4.919.309 7.339l-8.24 1.453 2.779 15.757 8.234-1.452a87.277 87.277 0 0 0 5.032 13.787l-7.253 4.188 8 13.856 7.272-4.2a88.792 88.792 0 0 0 9.436 11.226l-5.405 6.446 12.257 10.286 5.4-6.435a88.053 88.053 0 0 0 12.692 7.349l-2.865 7.871 15.036 5.471 2.858-7.854a87.483 87.483 0 0 0 14.458 2.545v8.367h16v-8.367a87.471 87.471 0 0 0 14.457-2.541l2.859 7.855 15.036-5.473-2.865-7.87a88.092 88.092 0 0 0 12.693-7.356l5.4 6.435 12.256-10.283-5.405-6.441a88.792 88.792 0 0 0 9.436-11.226l7.272 4.2 8-13.856-7.253-4.188a87.277 87.277 0 0 0 5.032-13.787l8.235 1.452 2.778-15.757-8.24-1.453c.201-2.425.309-4.872.309-7.344zm-88 48a48 48 0 1 1 48-48 48.053 48.053 0 0 1 -48 48z" fill="url(#New_Gradient_Swatch_1)"/></g></g></svg>