<svg height="512" viewBox="0 0 192 192" width="512" xmlns="http://www.w3.org/2000/svg" xmlns:xlink="http://www.w3.org/1999/xlink"><linearGradient id="New_Gradient_Swatch_1" gradientUnits="userSpaceOnUse" x1="16.343" x2="175.657" y1="203.657" y2="44.343"><stop offset="0" stop-color="#34cdfa"/><stop offset="1" stop-color="#e8d9f1"/></linearGradient><g id="_04-battery" data-name="04-battery"><g id="Flat"><rect fill="#34cdfa" height="40" rx="8" width="48" x="24" y="32"/><path d="m40 64v-24a8 8 0 0 1 8-8h-16a8 8 0 0 0 -8 8v24a8 8 0 0 0 8 8h16a8 8 0 0 1 -8-8z" fill="#01c0f9"/><rect fill="#34cdfa" height="40" rx="8" width="48" x="120" y="32"/><path d="m136 64v-24a8 8 0 0 1 8-8h-16a8 8 0 0 0 -8 8v24a8 8 0 0 0 8 8h16a8 8 0 0 1 -8-8z" fill="#01c0f9"/><rect fill="url(#New_Gradient_Swatch_1)" height="136" rx="8" width="192" y="56"/><g fill="#fff"><path d="m32 88h32v16h-32z"/><path d="m160 88h-8v-8h-16v8h-8v16h8v8h16v-8h8z"/></g></g></g></svg>