<svg height="512" viewBox="0 0 192 192" width="512" xmlns="http://www.w3.org/2000/svg" xmlns:xlink="http://www.w3.org/1999/xlink"><linearGradient id="New_Gradient_Swatch_1" gradientUnits="userSpaceOnUse" x1="70.343" x2="136" y1="121.657" y2="56"><stop offset="0" stop-color="#34cdfa"/><stop offset="1" stop-color="#e8d9f1"/></linearGradient><g id="_05-transmission" data-name="05-transmission"><g id="Flat"><path d="m96 0c-55.925 0-88 29.159-88 80 0 54.088 35.36 112 88 112s88-57.912 88-112c0-50.841-32.075-80-88-80z" fill="#e6f9fe"/><path d="m120 176c-52.64 0-88-57.912-88-112 0-23.7 6.977-42.684 20.084-56.2-28.446 11.817-44.084 36.72-44.084 72.2 0 54.088 35.36 112 88 112 19.949 0 37.413-8.322 51.415-21.6a69.629 69.629 0 0 1 -27.415 5.6z" fill="#ccf2fe"/><path d="m128 64v24h-24v-24h-16v24h-24v-24h-16v32a8 8 0 0 0 8 8h32v24h16v-24h24v24h16v-64z" fill="url(#New_Gradient_Swatch_1)"/><g fill="#67d9fb"><circle cx="96" cy="144" r="8"/><circle cx="136" cy="144" r="8"/><circle cx="136" cy="48" r="8"/><circle cx="96" cy="48" r="8"/><circle cx="56" cy="48" r="8"/></g></g></g></svg>