<svg height="512" viewBox="0 0 192 192" width="512" xmlns="http://www.w3.org/2000/svg" xmlns:xlink="http://www.w3.org/1999/xlink"><linearGradient id="New_Gradient_Swatch_1" gradientUnits="userSpaceOnUse" x1="79.129" x2="128.887" y1="121.074" y2="71.316"><stop offset="0" stop-color="#34cdfa"/><stop offset="1" stop-color="#e8d9f1"/></linearGradient><g id="_06-speed" data-name="06-speed"><g id="Flat"><path d="m96 0a96.014 96.014 0 0 0 -80.47 148.369 8 8 0 0 0 6.7 3.631h147.539a8 8 0 0 0 6.7-3.631 96.014 96.014 0 0 0 -80.469-148.369z" fill="#34cdfa"/><path d="m70.928 36.574-6.928-11.998a96.436 96.436 0 0 0 -10.332 14.1l3.4 5.894z" fill="#34cdfa"/><path d="m63.142 23.088.858 1.488q1.351-1.533 2.765-3.01c-1.22.482-2.432.983-3.623 1.522z" fill="#e6f9fe"/><path d="m53.669 38.68-4.369-7.572a80.66 80.66 0 0 0 -18.192 18.192l13.466 7.775-8 13.856-13.486-7.789a79.344 79.344 0 0 0 -6.688 24.858h15.6v16h-15.6a79.519 79.519 0 0 0 10.3 32h26.163a95.9 95.9 0 0 1 .806-97.32z" fill="#ccf2fe"/><path d="m175.6 104h-15.6v-16h15.6a79.344 79.344 0 0 0 -6.687-24.858l-13.486 7.786-8-13.856 13.465-7.772a80.66 80.66 0 0 0 -18.192-18.192l-7.775 13.466-13.856-8 7.786-13.486a79.344 79.344 0 0 0 -24.855-6.688v15.6h-16v-15.6a79.173 79.173 0 0 0 -21.234 5.165q-1.415 1.476-2.766 3.011l6.927 12-13.856 8-3.4-5.894a95.9 95.9 0 0 0 -.808 97.318h112.437a79.538 79.538 0 0 0 10.3-32z" fill="#e6f9fe"/><path d="m120 62.433s-38.166 18.105-44.784 29.567a24 24 0 0 0 41.568 24c6.616-11.459 3.216-53.567 3.216-53.567zm-24 49.567a8 8 0 1 1 8-8 8 8 0 0 1 -8 8z" fill="url(#New_Gradient_Swatch_1)"/></g></g></svg>