<svg height="512" viewBox="0 0 192 192" width="512" xmlns="http://www.w3.org/2000/svg" xmlns:xlink="http://www.w3.org/1999/xlink"><linearGradient id="New_Gradient_Swatch_1" gradientUnits="userSpaceOnUse" x1="144.201" x2="161.171" y1="56.485" y2="39.515"><stop offset="0" stop-color="#34cdfa"/><stop offset="1" stop-color="#e8d9f1"/></linearGradient><linearGradient id="New_Gradient_Swatch_1-2" x1="152.686" x2="186.627" xlink:href="#New_Gradient_Swatch_1" y1="64.97" y2="31.03"/><g id="_07-lock" data-name="07-lock"><g id="Flat"><rect fill="#e6f9fe" height="192" rx="24" width="128" x="8"/><path d="m56 176a24 24 0 0 1 -24-24v-144a23.949 23.949 0 0 1 1.371-8h-1.371a24 24 0 0 0 -24 24v144a24 24 0 0 0 24 24h80a24.006 24.006 0 0 0 22.629-16z" fill="#ccf2fe"/><path d="m72 88a24.027 24.027 0 0 0 -24 24v16h16v-16a8 8 0 0 1 16 0v16h16v-16a24.027 24.027 0 0 0 -24-24z" fill="#99e6fd"/><rect fill="#34cdfa" height="48" rx="8" width="64" x="40" y="120"/><circle cx="72" cy="48" fill="#67d9fb" r="32"/><circle cx="72" cy="48" fill="#ccf2fe" r="16"/><path d="m152.686 31.029-11.313 11.315a8 8 0 0 1 0 11.312l11.313 11.315a24 24 0 0 0 0-33.942z" fill="url(#New_Gradient_Swatch_1)"/><path d="m169.657 14.059-11.314 11.314a32.035 32.035 0 0 1 0 45.254l11.314 11.314a48 48 0 0 0 0-67.882z" fill="url(#New_Gradient_Swatch_1-2)"/></g></g></svg>