<svg height="512" viewBox="0 0 192 192" width="512" xmlns="http://www.w3.org/2000/svg" xmlns:xlink="http://www.w3.org/1999/xlink"><linearGradient id="New_Gradient_Swatch_1" gradientUnits="userSpaceOnUse" x1="90.87" x2="128.565" y1="110.261" y2="72.565"><stop offset="0" stop-color="#34cdfa"/><stop offset="1" stop-color="#e8d9f1"/></linearGradient><linearGradient id="New_Gradient_Swatch_1-2" x1="58.192" x2="71.467" xlink:href="#New_Gradient_Swatch_1" y1="82.786" y2="69.511"/><linearGradient id="New_Gradient_Swatch_1-3" x1="58.272" x2="98.902" xlink:href="#New_Gradient_Swatch_1" y1="106.272" y2="65.641"/><linearGradient id="New_Gradient_Swatch_1-4" x1="121.522" x2="136.965" xlink:href="#New_Gradient_Swatch_1" y1="108.826" y2="93.383"/><g id="_08-schedule" data-name="08-schedule"><g id="Flat"><rect fill="#e6f9fe" height="176" rx="8" width="192" y="16"/><path d="m24 184v-160a8 8 0 0 1 8-8h-24a8 8 0 0 0 -8 8v160a8 8 0 0 0 8 8h24a8 8 0 0 1 -8-8z" fill="#ccf2fe"/><path d="m192 24a8 8 0 0 0 -8-8h-176a8 8 0 0 0 -8 8v16h192z" fill="#99e6fd"/><path d="m32 16h-24a8 8 0 0 0 -8 8v16h24v-16a8 8 0 0 1 8-8z" fill="#67d9fb"/><g fill="#34cdfa"><path d="m88 0h16v32h-16z"/><path d="m136 0h16v32h-16z"/><path d="m40 0h16v32h-16z"/><rect height="24" rx="4" width="24" x="40" y="144"/><rect height="24" rx="4" width="24" x="128" y="144"/><path d="m135.351 92h25.298v16h-25.298z" transform="matrix(.949 -.316 .316 .949 -24.031 51.943)"/><path d="m36 87.351h16v25.298h-16z" transform="matrix(.316 -.949 .949 .316 -64.782 110.119)"/></g><path d="m157.657 114.343-14.434-14.434-7.462-29.849a8 8 0 0 0 -7.761-6.06h-64a8 8 0 0 0 -7.761 6.06l-7.463 29.85-14.433 14.433a8 8 0 0 0 -2.343 5.657v24a8 8 0 0 0 8 8h112a8 8 0 0 0 8-8v-24a8 8 0 0 0 -2.343-5.657z" fill="#99e6fd"/><path d="m32 120v24a8 8 0 0 0 8 8h112a8 8 0 0 0 8-8v-24" fill="#67d9fb"/><path d="m136 104h-80l8-32h64z" fill="#fff"/><path d="m128 72h-11.391l-32 32h25.043l21.078-21.078z" fill="url(#New_Gradient_Swatch_1)"/><path d="m64 72-3.319 13.275 13.276-13.275z" fill="url(#New_Gradient_Swatch_1-2)"/><path d="m79.826 72-21.101 21.101-2.725 10.899h17.261l32-32z" fill="url(#New_Gradient_Swatch_1-3)"/><path d="m132.139 88.557-15.443 15.443h19.304z" fill="url(#New_Gradient_Swatch_1-4)"/><circle cx="64" cy="136" fill="#e6f9fe" r="8"/><circle cx="128" cy="136" fill="#e6f9fe" r="8"/></g></g></svg>