<svg height="512" viewBox="0 0 192 192" width="512" xmlns="http://www.w3.org/2000/svg" xmlns:xlink="http://www.w3.org/1999/xlink"><linearGradient id="New_Gradient_Swatch_1" gradientUnits="userSpaceOnUse" x1="84.126" x2="155.503" y1="160.033" y2="88.656"><stop offset="0" stop-color="#34cdfa"/><stop offset="1" stop-color="#e8d9f1"/></linearGradient><g id="_09-piston" data-name="09-piston"><g id="Flat"><path d="m178.692 136.6-2.837-7.481a43.8 43.8 0 0 0 -40.718-28.407l-19.5-51.426a4 4 0 0 0 -5.158-2.322l-22.441 8.51a4 4 0 0 0 -2.322 5.159l19.5 51.427a43.8 43.8 0 0 0 -11.643 48.264l2.837 7.48a35.932 35.932 0 0 0 46.426 20.896l14.96-5.673a36.041 36.041 0 0 0 20.896-46.427zm-34.657 32.7a26.286 26.286 0 1 1 15.256-33.9 26.319 26.319 0 0 1 -15.256 33.9z" fill="url(#New_Gradient_Swatch_1)"/><path d="m136 0h-80a8 8 0 0 0 -8 8v56a8.089 8.089 0 0 0 11.553 7.167c.147-.067 14.839-7.167 36.447-7.167 21.522 0 36.185 7.04 36.444 7.167a8.078 8.078 0 0 0 11.556-7.167v-56a8 8 0 0 0 -8-8z" fill="#99e6fd"/><path d="m64 32a8 8 0 0 1 8-8h72v-16a8 8 0 0 0 -8-8h-80a8 8 0 0 0 -8 8v56a8.089 8.089 0 0 0 11.553 7.167c.047-.023 1.62-.78 4.447-1.794z" fill="#67d9fb"/><circle cx="96" cy="40" fill="#34cdfa" r="8"/><path d="m40 0h112v16h-112z" fill="#ccf2fe"/></g></g></svg>