<svg height="512" viewBox="0 0 192 192" width="512" xmlns="http://www.w3.org/2000/svg" xmlns:xlink="http://www.w3.org/1999/xlink"><linearGradient id="New_Gradient_Swatch_1" gradientUnits="userSpaceOnUse" x1="79.029" x2="112.971" y1="112.971" y2="79.029"><stop offset="0" stop-color="#34cdfa"/><stop offset="1" stop-color="#e8d9f1"/></linearGradient><g id="_10-fan" data-name="10-fan"><g id="Flat"><path d="m184 0h-176a8 8 0 0 0 -8 8v176a8 8 0 0 0 8 8h176a8 8 0 0 0 8-8v-176a8 8 0 0 0 -8-8zm-160 96a72 72 0 1 1 72 72 72.081 72.081 0 0 1 -72-72z" fill="#67d9fb"/><path d="m24 176a8 8 0 0 1 -8-8v-168h-8a8 8 0 0 0 -8 8v176a8 8 0 0 0 8 8h176a8 8 0 0 0 8-8v-8z" fill="#34cdfa"/><g fill="#ccf2fe"><path d="m96.361 96s-26.361-8-26.361-38c0-20.1 27.717-36.806 44-16 18 23-26 22-17.639 54z"/><path d="m95.82 95.688s6.252 26.829-19.729 41.829c-17.407 10.05-45.733-5.6-35.856-30.1 10.918-27.094 32.052 11.511 55.585-11.729z"/><path d="m95.82 96.312s20.108-18.829 46.089-3.829c17.407 10.05 18.016 42.407-8.144 46.1-28.918 4.094-6.052-33.511-37.945-42.271z"/></g><circle cx="96" cy="96" fill="url(#New_Gradient_Swatch_1)" r="24"/></g></g></svg>