<svg height="512" viewBox="0 0 192 192" width="512" xmlns="http://www.w3.org/2000/svg" xmlns:xlink="http://www.w3.org/1999/xlink"><linearGradient id="New_Gradient_Swatch_1" gradientUnits="userSpaceOnUse" x1="56" x2="136" y1="192" y2="112"><stop offset="0" stop-color="#34cdfa"/><stop offset="1" stop-color="#e8d9f1"/></linearGradient><g id="_11-wheel" data-name="11-wheel"><g id="Flat"><path d="m168 144h-49.376a24 24 0 0 0 -45.248 0h-49.376v16h49.376a24 24 0 0 0 45.248 0h49.376zm-72 16a8 8 0 1 1 8-8 8.009 8.009 0 0 1 -8 8z" fill="url(#New_Gradient_Swatch_1)"/><rect fill="#ccf2fe" height="80" rx="8" width="32" y="112"/><rect fill="#ccf2fe" height="80" rx="8" width="32" y="112"/><path d="m16 176v-64h-8a8 8 0 0 0 -8 8v64a8 8 0 0 0 8 8h16a8 8 0 0 0 8-8h-8a8 8 0 0 1 -8-8z" fill="#99e6fd"/><rect fill="#ccf2fe" height="80" rx="8" width="32" x="160" y="112"/><path d="m176 176v-64h-8a8 8 0 0 0 -8 8v64a8 8 0 0 0 8 8h16a8 8 0 0 0 8-8h-8a8 8 0 0 1 -8-8z" fill="#99e6fd"/><path d="m136 64v11.45c-7.71-8.14-21.711-19.45-40-19.45s-32.29 11.31-40 19.45v-11.45h-16v24a8 8 0 0 0 5.47 7.589l24 8 5.06-15.178-6.651-2.217c5.757-6.016 15.84-14.194 28.121-14.194s22.369 8.182 28.122 14.193l-6.652 2.218 5.06 15.178 24-8a8 8 0 0 0 5.47-7.589v-24z" fill="#34cdfa"/></g></g></svg>