<svg height="512" viewBox="0 0 192 192" width="512" xmlns="http://www.w3.org/2000/svg" xmlns:xlink="http://www.w3.org/1999/xlink"><linearGradient id="New_Gradient_Swatch_1" gradientUnits="userSpaceOnUse" x1="157.508" x2="186.492" y1="133.779" y2="104.796"><stop offset="0" stop-color="#34cdfa"/><stop offset="1" stop-color="#e8d9f1"/></linearGradient><g id="_12-oil" data-name="12-oil"><g id="Flat"><path d="m32 112h-8a24.027 24.027 0 0 1 -24-24v-16a24.027 24.027 0 0 1 24-24h8a8 8 0 0 1 8 8v48a8 8 0 0 1 -8 8zm-8-48a8.009 8.009 0 0 0 -8 8v16a8.009 8.009 0 0 0 8 8z" fill="#34cdfa"/><path d="m175.739 50.579a4 4 0 0 0 -3.739-2.579h-16a4.007 4.007 0 0 0 -1.576.323l-50.424 28.814v-21.137a8 8 0 0 0 -8-8h-64a8 8 0 0 0 -8 8v64a8 8 0 0 0 8 8h64c.895-.052 1.8-.106 2.694-.091 1.475.025 2.761.149 3.963-.919l72-72a4 4 0 0 0 1.082-4.411z" fill="#ccf2fe"/><path d="m114.694 111.909c-.9-.015-1.8.039-2.694.091h-64a8 8 0 0 1 -8-8v-56h-8a8 8 0 0 0 -8 8v64a8 8 0 0 0 8 8h64c.895-.052 1.8-.106 2.694-.091 1.475.025 2.761.149 3.963-.919l16-16c-1.202 1.068-2.488.944-3.963.919z" fill="#99e6fd"/><path d="m174.751 93.1a4 4 0 0 0 -5.5 0c-2.883 2.727-17.251 16.853-17.251 26.9a20 20 0 0 0 40 0c0-10.047-14.368-24.173-17.249-26.9z" fill="url(#New_Gradient_Swatch_1)"/><circle cx="176" cy="120" fill="#fff" r="8"/></g></g></svg>