<svg height="512" viewBox="0 0 192 192" width="512" xmlns="http://www.w3.org/2000/svg" xmlns:xlink="http://www.w3.org/1999/xlink"><linearGradient id="New_Gradient_Swatch_1" gradientUnits="userSpaceOnUse" x1="113.5" x2="137.5" y1="33.5" y2="9.5"><stop offset="0" stop-color="#34cdfa"/><stop offset="1" stop-color="#e8d9f1"/></linearGradient><linearGradient id="New_Gradient_Swatch_1-2" x1="70.625" x2="104" xlink:href="#New_Gradient_Swatch_1" y1="41.375" y2="8"/><g id="_13-lift" data-name="13-lift"><g id="Flat"><path d="m56 112-32 40v-40z" fill="#e6f9fe"/><path d="m136 112 32 40v-40z" fill="#e6f9fe"/><path d="m160 112h16v80h-16z" fill="#34cdfa"/><path d="m16 112h16v80h-16z" fill="#34cdfa"/><path d="m0 104h192v16h-192z" fill="#99e6fd"/><path d="m168 32h-17.754l-6.485-25.94a8 8 0 0 0 -7.761-6.06h-56a8 8 0 0 0 -6.3 3.075l-23.553 30.142-28.087 7.022a8 8 0 0 0 -6.06 7.761v24a8 8 0 0 0 8 8h144a8 8 0 0 0 8-8v-32a8 8 0 0 0 -8-8z" fill="#ccf2fe"/><path d="m168 64h-144a8 8 0 0 1 -8-8v16a8 8 0 0 0 8 8h144a8 8 0 0 0 8-8v-16a8 8 0 0 1 -8 8z" fill="#99e6fd"/><circle cx="136" cy="80" fill="#34cdfa" r="24"/><circle cx="136" cy="80" fill="#e6f9fe" r="8"/><circle cx="48" cy="80" fill="#34cdfa" r="24"/><circle cx="48" cy="80" fill="#e6f9fe" r="8"/><path d="m112 8h24l6 24h-30z" fill="url(#New_Gradient_Swatch_1)"/><path d="m104 8h-24l-18.75 24h42.75z" fill="url(#New_Gradient_Swatch_1-2)"/></g></g></svg>