<svg height="512" viewBox="0 0 192 192" width="512" xmlns="http://www.w3.org/2000/svg" xmlns:xlink="http://www.w3.org/1999/xlink"><linearGradient id="New_Gradient_Swatch_1" gradientUnits="userSpaceOnUse" x1="18.477" x2="43.868" y1="108.216" y2="82.825"><stop offset="0" stop-color="#34cdfa"/><stop offset="1" stop-color="#e8d9f1"/></linearGradient><linearGradient id="New_Gradient_Swatch_1-2" x1="88.363" x2="152.556" xlink:href="#New_Gradient_Swatch_1" y1="136.014" y2="71.821"/><linearGradient id="New_Gradient_Swatch_1-3" x1="35.132" x2="85.638" xlink:href="#New_Gradient_Swatch_1" y1="124.557" y2="74.051"/><g id="_14-mirror" data-name="14-mirror"><g id="Flat"><path d="m96 69c-45.834 0-71.85 17.636-85.227 31.513l39.878 39.324c4.586-4.894 17.349-14.837 45.349-14.837s40.763 9.943 45.349 14.837l39.878-39.324c-13.377-13.877-39.393-31.513-85.227-31.513z" fill="#fff"/><path d="m10.773 100.513 15.527 15.309 14.491-36.075a95.535 95.535 0 0 0 -30.018 20.766z" fill="url(#New_Gradient_Swatch_1)"/><path d="m97.991 69.024-19.2 57.417a96.941 96.941 0 0 1 17.209-1.441c28 0 40.763 9.943 45.349 14.837l39.878-39.324c-13.181-13.673-38.646-30.983-83.236-31.489z" fill="url(#New_Gradient_Swatch_1-2)"/><path d="m50.483 75.965-17.051 46.891 17.219 16.981a37.735 37.735 0 0 1 9.652-7.21l20.936-62.975a132.222 132.222 0 0 0 -30.756 6.313z" fill="url(#New_Gradient_Swatch_1-3)"/><path d="m141.349 147.837h-.159a8 8 0 0 1 -5.679-2.528c-3.467-3.703-14.258-12.309-39.511-12.309s-36.044 8.606-39.511 12.307a8 8 0 0 1 -11.455.226l-39.878-39.324a8 8 0 0 1 -.142-11.249c14.935-15.492 42.844-33.96 90.986-33.96s76.051 18.468 90.986 33.96a8 8 0 0 1 -.142 11.249l-39.878 39.324a8 8 0 0 1 -5.617 2.304zm-45.349-30.837c22.855 0 36.854 6.159 44.973 11.972l28.727-28.329c-13.819-11.789-36.875-23.643-73.7-23.643s-59.881 11.854-73.7 23.643l28.727 28.329c8.119-5.813 22.118-11.972 44.973-11.972z" fill="#e6f9fe"/><path d="m79.751 117h64.498v16.001h-64.498z" fill="#34cdfa" transform="matrix(.496 -.868 .868 .496 -52.098 160.227)"/><path d="m188 48a12.013 12.013 0 0 1 -12-12 4 4 0 0 0 -8 0 12.013 12.013 0 0 1 -12 12 4 4 0 0 0 0 8 12.013 12.013 0 0 1 12 12 4 4 0 0 0 8 0 12.013 12.013 0 0 1 12-12 4 4 0 0 0 0-8z" fill="#99e6fd"/><path d="m144 16a12.013 12.013 0 0 1 -12-12 4 4 0 0 0 -8 0 12.013 12.013 0 0 1 -12 12 4 4 0 0 0 0 8 12.013 12.013 0 0 1 12 12 4 4 0 0 0 8 0 12.013 12.013 0 0 1 12-12 4 4 0 0 0 0-8z" fill="#ccf2fe"/><path d="m100 32a12.013 12.013 0 0 1 -12-12 4 4 0 0 0 -8 0 12.013 12.013 0 0 1 -12 12 4 4 0 0 0 0 8 12.013 12.013 0 0 1 12 12 4 4 0 0 0 8 0 12.013 12.013 0 0 1 12-12 4 4 0 0 0 0-8z" fill="#99e6fd"/></g></g></svg>