<svg height="512" viewBox="0 0 192 192" width="512" xmlns="http://www.w3.org/2000/svg" xmlns:xlink="http://www.w3.org/1999/xlink"><linearGradient id="New_Gradient_Swatch_1" gradientUnits="userSpaceOnUse" x1="26.682" x2="128.495" y1="146.995" y2="45.182"><stop offset="0" stop-color="#34cdfa"/><stop offset="1" stop-color="#e8d9f1"/></linearGradient><g id="_15-light" data-name="15-light"><path d="m104 24c-40.209 0-104 19.547-104 72 0 24.306 13.522 44.06 39.106 57.125 18.24 9.314 42.494 14.875 64.894 14.875a8 8 0 0 0 8-8v-128a8 8 0 0 0 -8-8z" fill="url(#New_Gradient_Swatch_1)"/><g fill="#ccf2fe"><path d="m128 24h64v16h-64z"/><path d="m128 88h64v16h-64z"/><path d="m128 152h64v16h-64z"/><path d="m128 120h64v16h-64z"/><path d="m128 56h64v16h-64z"/></g></g></svg>