<?xml version="1.0"?>
<svg xmlns="http://www.w3.org/2000/svg" xmlns:xlink="http://www.w3.org/1999/xlink" viewBox="0 0 192 192" width="512" height="512"><defs><linearGradient id="New_Gradient_Swatch_1" x1="78.68" y1="184.605" x2="113.32" y2="149.964" gradientUnits="userSpaceOnUse"><stop offset="0" stop-color="#34cdfa"/><stop offset="1" stop-color="#e8d9f1"/></linearGradient></defs><g id="_16-filter" data-name="16-filter"><path d="M159.391,20.938A8,8,0,0,0,152,16H40a8,8,0,0,0-5.657,13.657L72,72l8.109,49.315A8,8,0,0,0,88,128h16a8,8,0,0,0,7.891-6.685L120,72l37.657-42.343A8,8,0,0,0,159.391,20.938Z" style="fill:#ccf2fe"/><path d="M96.109,121.315,88,72,50.343,29.657A8,8,0,0,1,56,16H40a8,8,0,0,0-5.657,13.657L72,72l8.109,49.315A8,8,0,0,0,88,128h16A8,8,0,0,1,96.109,121.315Z" style="fill:#99e6fd"/><path d="M48.609,20.938A8,8,0,0,1,56,16H40a8,8,0,0,0-5.657,13.657L72,72H88L50.343,29.657A8,8,0,0,1,48.609,20.938Z" style="fill:#67d9fb"/><path d="M157.657,29.657A8,8,0,0,0,152,16H56a8,8,0,0,0-5.657,13.657L88,72h32Z" style="fill:#99e6fd"/><rect x="32" width="128" height="32" rx="8" style="fill:#e6f9fe"/><path d="M101.5,138.193a8,8,0,0,0-11.006,0C86.158,142.306,72,156.608,72,168a24,24,0,0,0,48,0C120,156.608,105.842,142.306,101.5,138.193Z" style="fill:url(#New_Gradient_Swatch_1)"/><circle cx="104" cy="168" r="8" style="fill:#fff"/></g></svg>
