<svg height="512" viewBox="0 0 192 192" width="512" xmlns="http://www.w3.org/2000/svg" xmlns:xlink="http://www.w3.org/1999/xlink"><linearGradient id="New_Gradient_Swatch_1" gradientUnits="userSpaceOnUse" x1="53.029" x2="138.971" y1="190.971" y2="105.029"><stop offset="0" stop-color="#34cdfa"/><stop offset="1" stop-color="#e8d9f1"/></linearGradient><g id="_17-key" data-name="17-key"><g id="Flat"><path d="m124 72h-10.757l-1.451-18.863a4.005 4.005 0 0 0 -1.49-2.818l-8.314-6.651 7.126-7.126a4 4 0 0 0 1.16-3.135l-1.363-17.72c-.655-8.5-7.5-15.465-16.024-15.682a16.48 16.48 0 0 0 -16.887 16.456v91.539a4 4 0 0 0 4 4h32a4 4 0 0 0 3.988-4.307l-1.515-19.693h9.527a4 4 0 0 0 4-4v-8a4 4 0 0 0 -4-4z" fill="#e6f9fe"/><path d="m88 108v-91.539a16.475 16.475 0 0 1 10.46-15.312 16.245 16.245 0 0 0 -6-1.149 16.48 16.48 0 0 0 -16.46 16.461v91.539a4 4 0 0 0 4 4h12a4 4 0 0 1 -4-4z" fill="#ccf2fe"/><rect fill="url(#New_Gradient_Swatch_1)" height="88" rx="24" width="112" x="40" y="104"/><g fill="#fff"><path d="m72 128h48v16h-48z"/><path d="m72 152h48v16h-48z"/></g></g></g></svg>