<svg height="512" viewBox="0 0 192 192" width="512" xmlns="http://www.w3.org/2000/svg" xmlns:xlink="http://www.w3.org/1999/xlink"><linearGradient id="New_Gradient_Swatch_1" gradientUnits="userSpaceOnUse" x1="34.343" x2="160" y1="189.657" y2="64"><stop offset="0" stop-color="#34cdfa"/><stop offset="1" stop-color="#e8d9f1"/></linearGradient><g id="_18-coolant" data-name="18-coolant"><g id="Flat"><path d="m184 40h-120v-24a8 8 0 0 0 -8-8h-24a8 8 0 0 0 -8 8v24h-16a8 8 0 0 0 -8 8v104a8 8 0 0 0 8 8h128v32h24v-32h24a8 8 0 0 0 8-8v-104a8 8 0 0 0 -8-8z" fill="#e6f9fe"/><path d="m16 8h56v16h-56z" fill="#34cdfa"/><path d="m96.006 96c-24.006 0-24.006-16-48.006-16s-24 16-48 16v56a8 8 0 0 0 8 8h128v32h24v-32h24a8 8 0 0 0 8-8v-56c-24 0-24-16-48-16s-24 16-47.994 16z" fill="url(#New_Gradient_Swatch_1)"/><g fill="#fff"><circle cx="39" cy="120" r="8"/><circle cx="96" cy="136" r="8"/><circle cx="144" cy="112" r="8"/></g></g></g></svg>