<svg height="512" viewBox="0 0 192 192" width="512" xmlns="http://www.w3.org/2000/svg" xmlns:xlink="http://www.w3.org/1999/xlink"><linearGradient id="New_Gradient_Swatch_1" gradientUnits="userSpaceOnUse" x1="64.343" x2="127.657" y1="51.657" y2="-11.657"><stop offset="0" stop-color="#34cdfa"/><stop offset="1" stop-color="#e8d9f1"/></linearGradient><linearGradient id="New_Gradient_Swatch_1-2" x1="64.343" x2="127.657" xlink:href="#New_Gradient_Swatch_1" y1="203.657" y2="140.343"/><g id="_19-filter" data-name="19-filter"><g id="Flat"><rect fill="#e6f9fe" height="144" rx="8" width="144" x="24" y="24"/><path d="m64 136a8 8 0 0 1 -8-8v-104h-24a8 8 0 0 0 -8 8v128a8 8 0 0 0 8 8h128a8 8 0 0 0 8-8v-24z" fill="#ccf2fe"/><rect fill="url(#New_Gradient_Swatch_1)" height="40" rx="8" width="96" x="48"/><rect fill="url(#New_Gradient_Swatch_1-2)" height="40" rx="8" width="96" x="48" y="152"/><g fill="#99e6fd"><path d="m128 32h16v128h-16z"/><path d="m88 32h16v128h-16z"/><path d="m48 32h16v128h-16z"/></g><path d="m16 152h160v16h-160z" fill="#34cdfa"/><path d="m16 24h160v16h-160z" fill="#34cdfa"/></g></g></svg>