<svg height="512" viewBox="0 0 192 192" width="512" xmlns="http://www.w3.org/2000/svg" xmlns:xlink="http://www.w3.org/1999/xlink"><linearGradient id="New_Gradient_Swatch_2" gradientUnits="userSpaceOnUse" x1="26.343" x2="165.657" y1="165.657" y2="26.343"><stop offset="0" stop-color="#34cdfa"/><stop offset="1" stop-color="#e8d9f1"/></linearGradient><path d="m152 16h-27.056l-5.789-11.578a8 8 0 0 0 -7.155-4.422h-32a8 8 0 0 0 -7.155 4.422l-5.789 11.578h-27.056a8 8 0 0 0 -8 8v144a8 8 0 0 0 8 8h27.056l5.789 11.578a8 8 0 0 0 7.155 4.422h32a8 8 0 0 0 7.155-4.422l5.789-11.578h27.056a8 8 0 0 0 8-8v-144a8 8 0 0 0 -8-8zm-32 48h-16v18.165a15.963 15.963 0 0 1 0 27.67v18.165h16v16h-16v16h-16v-16h-16v-16h16v-18.165a15.963 15.963 0 0 1 0-27.67v-18.165h-16v-16h16v-16h16v16h16z" fill="url(#New_Gradient_Swatch_2)"/></svg>