<svg id="_20-push_start" height="512" viewBox="0 0 192 192" width="512" xmlns="http://www.w3.org/2000/svg" xmlns:xlink="http://www.w3.org/1999/xlink" data-name="20-push start"><linearGradient id="New_Gradient_Swatch_1" gradientUnits="userSpaceOnUse" x1="40.14" x2="100.401" y1="139.497" y2="79.627"><stop offset="0" stop-color="#34cdfa"/><stop offset="1" stop-color="#e8d9f1"/></linearGradient><linearGradient id="New_Gradient_Swatch_1-2" x1="46.624" x2="106.885" xlink:href="#New_Gradient_Swatch_1" y1="146.023" y2="86.153"/><g id="Flat"><circle cx="96" cy="96" fill="#67d9fb" r="96"/><path d="m120 168a95.95 95.95 0 0 1 -78.786-150.786 95.97 95.97 0 1 0 133.572 133.572 95.457 95.457 0 0 1 -54.786 17.214z" fill="#01c0f9"/><circle cx="96" cy="96" fill="#e6f9fe" r="64"/><path d="m88 64h16v40h-16z" fill="url(#New_Gradient_Swatch_1)"/><path d="m130.644 75.994-13.85 8.012a24 24 0 1 1 -41.588 0l-13.85-8.012a40 40 0 1 0 69.288 0z" fill="url(#New_Gradient_Swatch_1-2)"/></g></svg>