<svg height="512" viewBox="0 0 192 192" width="512" xmlns="http://www.w3.org/2000/svg" xmlns:xlink="http://www.w3.org/1999/xlink"><linearGradient id="New_Gradient_Swatch_2" gradientUnits="userSpaceOnUse" x1="87.037" x2="120.962" y1="80.963" y2="47.037"><stop offset="0" stop-color="#34cdfa"/><stop offset="1" stop-color="#e8d9f1"/></linearGradient><linearGradient id="New_Gradient_Swatch_2-2" x1="72.69" x2="135.31" xlink:href="#New_Gradient_Swatch_2" y1="156.004" y2="93.385"/><rect fill="#34cdfa" height="56" rx="8" width="40" x="152" y="32"/><rect fill="#99e6fd" height="56" rx="8" width="40" x="152" y="104"/><path d="m144 0h-120a8 8 0 0 0 -8 8v176a8 8 0 0 0 8 8h120a24.028 24.028 0 0 0 24-24v-144a24.028 24.028 0 0 0 -24-24z" fill="#e6f9fe"/><path d="m160 176h-120a8 8 0 0 1 -8-8v-168h-8a8 8 0 0 0 -8 8v176a8 8 0 0 0 8 8h120a24.043 24.043 0 0 0 22.966-17.034 23.932 23.932 0 0 1 -6.966 1.034z" fill="#ccf2fe"/><circle cx="104" cy="64" fill="url(#New_Gradient_Swatch_2)" r="24"/><path d="m120 88h-32a24.028 24.028 0 0 0 -24 24v32a8 8 0 0 0 8 8h64a8 8 0 0 0 8-8v-32a24.028 24.028 0 0 0 -24-24z" fill="url(#New_Gradient_Swatch_2-2)"/><g fill="#01c0f9"><path d="m0 88h40v16h-40z"/><path d="m0 40h40v16h-40z"/><path d="m0 136h40v16h-40z"/></g></svg>