<svg height="512" viewBox="0 0 192 192" width="512" xmlns="http://www.w3.org/2000/svg" xmlns:xlink="http://www.w3.org/1999/xlink"><linearGradient id="New_Gradient_Swatch_1" gradientUnits="userSpaceOnUse" x1="110.075" x2="177.925" y1="177.925" y2="110.075"><stop offset="0" stop-color="#34cdfa"/><stop offset="1" stop-color="#e8d9f1"/></linearGradient><g id="_11-friendly" data-name="11-friendly"><g id="Flat"><circle cx="96" cy="32" fill="#e6f9fe" r="32"/><path d="m104 56a31.976 31.976 0 0 1 -26.258-50.258 31.985 31.985 0 1 0 44.516 44.516 31.815 31.815 0 0 1 -18.258 5.742z" fill="#ccf2fe"/><path d="m120 64h-48a32.036 32.036 0 0 0 -32 32v64a8 8 0 0 0 8 8h96a8 8 0 0 0 8-8v-64a32.036 32.036 0 0 0 -32-32z" fill="#e6f9fe"/><path d="m64 160v-64a32.036 32.036 0 0 1 32-32h-24a32.036 32.036 0 0 0 -32 32v64a8 8 0 0 0 8 8h24a8 8 0 0 1 -8-8z" fill="#ccf2fe"/><circle cx="144" cy="144" fill="url(#New_Gradient_Swatch_1)" r="48"/><path d="m168 136h-16v-16h-16v16h-16v16h16v16h16v-16h16z" fill="#fff"/></g></g></svg>