<?xml version="1.0" encoding="iso-8859-1"?>
<!-- Generator: Adobe Illustrator 19.0.0, SVG Export Plug-In . SVG Version: 6.00 Build 0)  -->
<svg version="1.1" id="Capa_1" xmlns="http://www.w3.org/2000/svg" xmlns:xlink="http://www.w3.org/1999/xlink" x="0px" y="0px"
	 viewBox="0 0 512 512" style="enable-background:new 0 0 512 512;" xml:space="preserve">
<g>
	<rect x="277.333" y="21.333" style="fill:#99E6FD;" width="42.667" height="85.333"/>
	<rect x="234.667" style="fill:#34CDFA;" width="128" height="42.667"/>
	
		<rect x="396.498" y="106.655" transform="matrix(-0.7071 0.7071 -0.7071 -0.7071 818.862 -83.2068)" style="fill:#99E6FD;" width="60.331" height="42.667"/>
	
		<rect x="437.338" y="50.751" transform="matrix(-0.7071 0.7071 -0.7071 -0.7071 850.8903 -160.4297)" style="fill:#34CDFA;" width="42.667" height="90.518"/>
	
		<linearGradient id="SVGID_1_" gradientUnits="userSpaceOnUse" x1="-40.4987" y1="627.9836" x2="-24.9076" y2="636.9851" gradientTransform="matrix(21.3333 0 0 -21.3333 996.3334 13791.667)">
		<stop  offset="0" style="stop-color:#34CDFA"/>
		<stop  offset="1" style="stop-color:#E8D9F1"/>
	</linearGradient>
	<circle style="fill:url(#SVGID_1_);" cx="298.667" cy="298.667" r="192"/>
	<path style="fill:#67D9FB;" d="M298.667,512c-117.821,0-213.333-95.513-213.333-213.333S180.846,85.333,298.667,85.333
		S512,180.846,512,298.667C511.871,416.434,416.434,511.871,298.667,512z M298.667,128C204.41,128,128,204.41,128,298.667
		s76.41,170.667,170.667,170.667s170.667-76.41,170.667-170.667C469.228,204.454,392.879,128.106,298.667,128z"/>
	<path style="fill:#FFFFFF;" d="M399.083,228.416l-30.165-30.165l-42.837,42.816c-8.541-4.165-17.911-6.352-27.413-6.4
		c-35.346,0-64,28.654-64,64s28.654,64,64,64s64-28.654,64-64c-0.048-9.502-2.235-18.872-6.4-27.413L399.083,228.416z M298.667,320
		c-11.782,0-21.333-9.551-21.333-21.333c0-11.782,9.551-21.333,21.333-21.333c11.782,0,21.333,9.551,21.333,21.333
		C320,310.449,310.449,320,298.667,320z"/>
	<g>
		<path style="fill:#B3ECFD;" d="M298.667,426.667c-70.692,0-128-57.308-128-128s57.308-128,128-128v42.667
			c-47.128,0-85.333,38.205-85.333,85.333S251.538,384,298.667,384S384,345.795,384,298.667h42.667
			C426.584,369.325,369.325,426.584,298.667,426.667z"/>
		<rect y="128" style="fill:#B3ECFD;" width="106.667" height="42.667"/>
	</g>
	<g>
		<rect x="42.667" y="192" style="fill:#99E6FD;" width="85.333" height="42.667"/>
		<rect x="42.667" y="362.667" style="fill:#99E6FD;" width="85.333" height="42.667"/>
	</g>
	<g>
		<rect y="426.667" style="fill:#B3ECFD;" width="106.667" height="42.667"/>
		<rect y="277.333" style="fill:#B3ECFD;" width="149.333" height="42.667"/>
	</g>
</g>
<g>
</g>
<g>
</g>
<g>
</g>
<g>
</g>
<g>
</g>
<g>
</g>
<g>
</g>
<g>
</g>
<g>
</g>
<g>
</g>
<g>
</g>
<g>
</g>
<g>
</g>
<g>
</g>
<g>
</g>
</svg>
