<?xml version="1.0" encoding="iso-8859-1"?>
<!-- Generator: Adobe Illustrator 19.0.0, SVG Export Plug-In . SVG Version: 6.00 Build 0)  -->
<svg version="1.1" id="Capa_1" xmlns="http://www.w3.org/2000/svg" xmlns:xlink="http://www.w3.org/1999/xlink" x="0px" y="0px"
	 viewBox="0 0 512 512" style="enable-background:new 0 0 512 512;" xml:space="preserve">
<path style="fill:#67D9FB;" d="M448,0.004H64c-36.267,0-64,27.733-64,64v298.667c0,36.267,27.733,64,64,64h21.333v64
	c0,17.067,17.067,25.6,32,19.2l145.067-83.2H448c36.267,0,64-27.733,64-64V64.004C512,27.738,484.267,0.004,448,0.004z"/>
<path style="fill:#34CDFA;" d="M106.667,384.004c-36.267,0-64-27.733-64-64V4.271C17.067,12.804,0,36.271,0,64.004v298.667
	c0,36.267,27.733,64,64,64h21.333v64c0,17.067,17.067,25.6,32,19.2l145.067-83.2H448c27.733,0,51.2-17.067,59.733-42.667H106.667z"
	/>
<linearGradient id="SVGID_1_" gradientUnits="userSpaceOnUse" x1="-38.9458" y1="632.246" x2="-30.4605" y2="640.7312" gradientTransform="matrix(21.3333 0 0 -21.3333 996.3334 13791.7617)">
	<stop  offset="0" style="stop-color:#34CDFA"/>
	<stop  offset="1" style="stop-color:#E8D9F1"/>
</linearGradient>
<circle style="fill:url(#SVGID_1_);" cx="256" cy="213.338" r="128"/>
<path style="fill:#FFFFFF;" d="M256,234.671c-4.267,0-6.4,0-8.533-2.133L204.8,211.204l19.2-38.4l32,14.933l53.333-36.267
	l23.467,36.267l-64,42.667C264.533,232.538,260.267,234.671,256,234.671z"/>
<path style="fill:#CCF2FE;" d="M256,64.004c-83.2,0-149.333,66.133-149.333,149.333S172.8,362.671,256,362.671
	s149.333-66.133,149.333-149.333S339.2,64.004,256,64.004z M277.333,317.871v-19.2h-42.667v19.2
	c-42.667-8.533-74.667-40.533-83.2-83.2h19.2v-42.667h-19.2c8.533-42.667,40.533-74.667,83.2-83.2v19.2h42.667v-19.2
	c42.667,8.533,74.667,40.533,83.2,83.2h-19.2v42.667h19.2C352,277.338,320,309.338,277.333,317.871z"/>
<g>
</g>
<g>
</g>
<g>
</g>
<g>
</g>
<g>
</g>
<g>
</g>
<g>
</g>
<g>
</g>
<g>
</g>
<g>
</g>
<g>
</g>
<g>
</g>
<g>
</g>
<g>
</g>
<g>
</g>
</svg>
