<?xml version="1.0" encoding="iso-8859-1"?>
<!-- Generator: Adobe Illustrator 19.0.0, SVG Export Plug-In . SVG Version: 6.00 Build 0)  -->
<svg version="1.1" id="Capa_1" xmlns="http://www.w3.org/2000/svg" xmlns:xlink="http://www.w3.org/1999/xlink" x="0px" y="0px"
	 viewBox="0 0 512 512" style="enable-background:new 0 0 512 512;" xml:space="preserve">
<linearGradient id="SVGID_1_" gradientUnits="userSpaceOnUse" x1="-48.3568" y1="620.832" x2="-26.6338" y2="642.553" gradientTransform="matrix(21.3333 0 0 -21.3333 996.3334 13791.667)">
	<stop  offset="0" style="stop-color:#34CDFA"/>
	<stop  offset="1" style="stop-color:#E8D9F1"/>
</linearGradient>
<circle style="fill:url(#SVGID_1_);" cx="256" cy="256" r="234.667"/>
<path style="fill:#FFFFFF;" d="M256,277.333c-4.267,0-6.4,0-8.533-2.133l-85.333-42.667l19.2-38.4l70.4,34.133L326.4,134.4
	l34.133,25.6L275.2,266.667C268.8,275.2,262.4,277.333,256,277.333z"/>
<path style="fill:#B3ECFD;" d="M256,0C115.2,0,0,115.2,0,256s115.2,256,256,256s256-115.2,256-256S396.8,0,256,0z M277.333,467.2
	v-61.867h-42.667V467.2c-23.467-2.133-44.8-8.533-66.133-17.067l21.333-36.267L153.6,392.533L132.267,428.8
	c-19.2-12.8-34.133-29.867-49.067-49.067l36.267-21.333l-21.333-36.267l-36.267,21.333C53.333,322.133,46.933,300.8,44.8,277.333
	h61.867v-42.667H44.8c2.133-23.467,8.533-44.8,17.067-66.133l36.267,21.333l21.333-36.267L83.2,132.267
	c12.8-19.2,29.867-34.133,49.067-49.067l21.333,36.267l36.267-21.333l-21.333-36.267c21.333-8.533,42.667-14.933,66.133-17.067
	v61.867h42.667V44.8c117.333,12.8,202.667,117.333,192,232.533C458.667,377.6,377.6,458.667,277.333,467.2L277.333,467.2z"/>
<g>
	<rect x="384" y="213.333" style="fill:#34CDFA;" width="42.667" height="42.667"/>
	<rect x="384" y="405.333" style="fill:#34CDFA;" width="42.667" height="42.667"/>
</g>
<path style="fill:#67D9FB;" d="M505.6,390.4c0,0-14.933-19.2-14.933-70.4c0-46.933-38.4-85.333-85.333-85.333S320,273.067,320,320
	c2.133,23.467-2.133,49.067-14.933,70.4c-12.8,12.8-4.267,36.267,14.933,36.267h170.667C507.733,426.667,518.4,403.2,505.6,390.4z"
	/>
<path style="fill:#4DD3FB;" d="M347.733,390.4c12.8-21.333,17.067-44.8,14.933-70.4c0-38.4,25.6-72.533,64-83.2
	c-6.4-2.133-14.933-2.133-21.333-2.133C358.4,234.667,320,273.067,320,320c2.133,23.467-2.133,49.067-14.933,70.4
	c-12.8,12.8-4.267,36.267,14.933,36.267h42.667C343.467,426.667,334.933,403.2,347.733,390.4z"/>
<g>
</g>
<g>
</g>
<g>
</g>
<g>
</g>
<g>
</g>
<g>
</g>
<g>
</g>
<g>
</g>
<g>
</g>
<g>
</g>
<g>
</g>
<g>
</g>
<g>
</g>
<g>
</g>
<g>
</g>
</svg>
