<?xml version="1.0" encoding="iso-8859-1"?>
<!-- Generator: Adobe Illustrator 19.0.0, SVG Export Plug-In . SVG Version: 6.00 Build 0)  -->
<svg version="1.1" id="Capa_1" xmlns="http://www.w3.org/2000/svg" xmlns:xlink="http://www.w3.org/1999/xlink" x="0px" y="0px"
	 viewBox="0 0 511.247 511.247" style="enable-background:new 0 0 511.247 511.247;" xml:space="preserve">
<path style="fill:#E6F9FE;" d="M21.333,74.29h384c12.8,0,21.333,8.533,21.333,21.333v341.333c0,12.8-8.533,21.333-21.333,21.333
	h-384C8.533,458.29,0,449.757,0,436.957V95.624C0,82.824,8.533,74.29,21.333,74.29z"/>
<path style="fill:#B3ECFD;" d="M426.667,95.624c0-12.8-8.533-21.333-21.333-21.333h-384C8.533,74.29,0,82.824,0,95.624v42.667
	h426.667V95.624z"/>
<g>
	<rect x="192" y="31.624" style="fill:#34CDFA;" width="42.667" height="85.333"/>
	<rect x="298.667" y="31.624" style="fill:#34CDFA;" width="42.667" height="85.333"/>
	<rect x="85.333" y="31.624" style="fill:#34CDFA;" width="42.667" height="85.333"/>
</g>
<g>
	<rect x="85.333" y="180.957" style="fill:#99E6FD;" width="42.667" height="42.667"/>
	<rect x="192" y="180.957" style="fill:#99E6FD;" width="42.667" height="42.667"/>
	<rect x="298.667" y="180.957" style="fill:#99E6FD;" width="42.667" height="42.667"/>
	<rect x="85.333" y="266.29" style="fill:#99E6FD;" width="42.667" height="42.667"/>
	<rect x="192" y="266.29" style="fill:#99E6FD;" width="42.667" height="42.667"/>
	<rect x="85.333" y="351.624" style="fill:#99E6FD;" width="42.667" height="42.667"/>
	<rect x="192" y="349.49" style="fill:#99E6FD;" width="42.667" height="42.667"/>
</g>
<g>
	<rect x="384" y="244.957" style="fill:#34CDFA;" width="42.667" height="42.667"/>
	<rect x="384" y="436.957" style="fill:#34CDFA;" width="42.667" height="42.667"/>
</g>
<linearGradient id="SVGID_1_" gradientUnits="userSpaceOnUse" x1="-31.4749" y1="612.8131" x2="-23.9494" y2="620.3376" gradientTransform="matrix(21.3333 0 0 -21.3333 996.3334 13545.042)">
	<stop  offset="0" style="stop-color:#34CDFA"/>
	<stop  offset="1" style="stop-color:#E8D9F1"/>
</linearGradient>
<path style="fill:url(#SVGID_1_);" d="M505.6,422.024c0,0-14.933-19.2-14.933-70.4c0-46.933-38.4-85.333-85.333-85.333
	S320,304.69,320,351.624c2.133,23.467-2.133,49.067-14.933,70.4l0,0c-8.533,8.533-8.533,21.333,0,29.867
	c4.267,4.267,8.533,6.4,14.933,6.4h170.667C507.733,458.29,518.4,434.824,505.6,422.024z"/>
<g>
</g>
<g>
</g>
<g>
</g>
<g>
</g>
<g>
</g>
<g>
</g>
<g>
</g>
<g>
</g>
<g>
</g>
<g>
</g>
<g>
</g>
<g>
</g>
<g>
</g>
<g>
</g>
<g>
</g>
</svg>
