<?xml version="1.0" encoding="iso-8859-1"?>
<!-- Generator: Adobe Illustrator 19.0.0, SVG Export Plug-In . SVG Version: 6.00 Build 0)  -->
<svg version="1.1" id="Capa_1" xmlns="http://www.w3.org/2000/svg" xmlns:xlink="http://www.w3.org/1999/xlink" x="0px" y="0px"
	 viewBox="0 0 512 512" style="enable-background:new 0 0 512 512;" xml:space="preserve">
<g>
	
		<rect x="353.827" y="106.66" transform="matrix(-0.7071 0.7071 -0.7071 -0.7071 746.0208 -53.0256)" style="fill:#B3ECFD;" width="60.331" height="42.667"/>
	
		<rect x="394.666" y="50.82" transform="matrix(-0.7071 0.7071 -0.7071 -0.7071 778.0943 -130.1392)" style="fill:#34CDFA;" width="42.667" height="90.518"/>
	<rect x="234.667" y="21.333" style="fill:#99E6FD;" width="42.667" height="85.333"/>
	<rect x="192" style="fill:#34CDFA;" width="128" height="42.667"/>
	<path style="fill:#67D9FB;" d="M256,85.333c-117.821,0-213.333,95.513-213.333,213.333S138.179,512,256,512
		s213.333-95.513,213.333-213.333C469.204,180.9,373.767,85.463,256,85.333z"/>
	<circle style="fill:#CCF2FE;" cx="256" cy="298.667" r="170.667"/>
	
		<linearGradient id="SVGID_1_" gradientUnits="userSpaceOnUse" x1="-39.6529" y1="627.5346" x2="-31.2031" y2="635.9844" gradientTransform="matrix(21.3333 0 0 -21.3333 996.3334 13791.667)">
		<stop  offset="0" style="stop-color:#34CDFA"/>
		<stop  offset="1" style="stop-color:#E8D9F1"/>
	</linearGradient>
	<path style="fill:url(#SVGID_1_);" d="M256,298.667V149.333c-82.475,0-149.333,66.859-149.333,149.333S173.525,448,256,448
		s149.333-66.859,149.333-149.333H256z"/>
</g>
<g>
</g>
<g>
</g>
<g>
</g>
<g>
</g>
<g>
</g>
<g>
</g>
<g>
</g>
<g>
</g>
<g>
</g>
<g>
</g>
<g>
</g>
<g>
</g>
<g>
</g>
<g>
</g>
<g>
</g>
</svg>
