<?xml version="1.0" encoding="iso-8859-1"?>
<!-- Generator: Adobe Illustrator 19.0.0, SVG Export Plug-In . SVG Version: 6.00 Build 0)  -->
<svg version="1.1" id="Capa_1" xmlns="http://www.w3.org/2000/svg" xmlns:xlink="http://www.w3.org/1999/xlink" x="0px" y="0px"
	 viewBox="0 0 512.003 512.003" style="enable-background:new 0 0 512.003 512.003;" xml:space="preserve">
<g>
	
		<rect x="136.448" y="384.007" transform="matrix(-0.5547 0.8321 -0.8321 -0.5547 668.983 452.6525)" style="fill:#CCF2FE;" width="153.835" height="42.667"/>
	<path style="fill:#67D9FB;" d="M456.7,87.171l-192-85.333c-5.514-2.45-11.808-2.45-17.323,0l-192,85.333
		c-10.769,4.78-15.624,17.385-10.843,28.154c3.423,7.711,11.068,12.681,19.505,12.678h21.333v213.333
		c0,11.782,9.551,21.333,21.333,21.333h298.667c11.782,0,21.333-9.551,21.333-21.333V128.003h21.333
		c11.782,0.003,21.336-9.545,21.339-21.327C469.381,98.239,464.411,90.594,456.7,87.171z"/>
	<path style="fill:#34CDFA;" d="M106.706,320.003V106.669H85.372c-11.557,0.192-21.08-9.022-21.272-20.578
		c-0.016-0.965,0.035-1.93,0.152-2.888l-8.896,3.947c-10.781,4.753-15.667,17.346-10.913,28.127
		c3.422,7.76,11.115,12.757,19.596,12.726h21.333v213.333c0,11.782,9.551,21.333,21.333,21.333h298.667
		c11.782,0,21.333-9.551,21.333-21.333H128.039C116.257,341.336,106.706,331.785,106.706,320.003z"/>
	
		<linearGradient id="SVGID_1_" gradientUnits="userSpaceOnUse" x1="-38.1997" y1="633.9515" x2="-31.1286" y2="641.0226" gradientTransform="matrix(21.3333 0 0 -21.3333 995.5412 13791.7275)">
		<stop  offset="0" style="stop-color:#34CDFA"/>
		<stop  offset="1" style="stop-color:#E8D9F1"/>
	</linearGradient>
	<circle style="fill:url(#SVGID_1_);" cx="256.039" cy="192.003" r="106.667"/>
	<path style="fill:#B3ECFD;" d="M256.039,320.003c-70.692,0-128-57.308-128-128s57.308-128,128-128s128,57.308,128,128
		C383.957,262.661,326.697,319.92,256.039,320.003z M256.039,106.669c-47.128,0-85.333,38.205-85.333,85.333
		s38.205,85.333,85.333,85.333s85.333-38.205,85.333-85.333S303.167,106.669,256.039,106.669z"/>
	<circle style="fill:#67D9FB;" cx="170.706" cy="469.336" r="42.667"/>
	<path style="fill:#FFFFFF;" d="M256.039,234.669c-3.309,0.003-6.574-0.764-9.536-2.24l-42.667-21.333l19.093-38.165l28.907,14.464
		l31.787-31.787l30.165,30.165l-42.667,42.667C267.118,232.433,261.693,234.674,256.039,234.669z"/>
</g>
<g>
</g>
<g>
</g>
<g>
</g>
<g>
</g>
<g>
</g>
<g>
</g>
<g>
</g>
<g>
</g>
<g>
</g>
<g>
</g>
<g>
</g>
<g>
</g>
<g>
</g>
<g>
</g>
<g>
</g>
</svg>
