<?xml version="1.0" encoding="iso-8859-1"?>
<!-- Generator: Adobe Illustrator 19.0.0, SVG Export Plug-In . SVG Version: 6.00 Build 0)  -->
<svg version="1.1" id="Capa_1" xmlns="http://www.w3.org/2000/svg" xmlns:xlink="http://www.w3.org/1999/xlink" x="0px" y="0px"
	 viewBox="0 0 503.26 503.26" style="enable-background:new 0 0 503.26 503.26;" xml:space="preserve">
<g>
	<g>
		
			<rect x="379.526" y="430.435" transform="matrix(-0.7071 0.7071 -0.7071 -0.7071 1010.0027 502.844)" style="fill:#34CDFA;" width="42.667" height="60.331"/>
		
			<rect x="72.058" y="439.257" transform="matrix(-0.7071 0.7071 -0.7071 -0.7071 500.1931 713.9944)" style="fill:#34CDFA;" width="60.331" height="42.667"/>
	</g>
	
		<linearGradient id="SVGID_1_" gradientUnits="userSpaceOnUse" x1="-45.5523" y1="617.3804" x2="-32.8244" y2="630.1083" gradientTransform="matrix(21.3333 0 0 -21.3333 1087.5336 13596.4736)">
		<stop  offset="0" style="stop-color:#34CDFA"/>
		<stop  offset="1" style="stop-color:#E8D9F1"/>
	</linearGradient>
	<circle style="fill:url(#SVGID_1_);" cx="251.515" cy="289.927" r="192"/>
	<path style="fill:#34CDFA;" d="M489.275,54.769c-2.346-16.825-11.326-32.013-24.939-42.176c-28.354-20.903-68.233-15.206-89.6,12.8
		c-9.835,13.077-27.925,32.384-8.533,46.933l68.267,51.2c19.541,14.635,32.875-8.235,42.667-21.333
		C487.353,88.64,491.723,71.564,489.275,54.769z"/>
	<path style="fill:#01C0F9;" d="M489.275,54.769c-4.25-30.932-30.435-54.136-61.653-54.635
		c31.295,16.431,43.344,55.121,26.913,86.416c-1.579,3.007-3.395,5.884-5.43,8.603c-5.566,9.063-12.806,16.983-21.333,23.339
		l6.72,5.035c19.541,14.635,32.875-8.235,42.667-21.333C487.366,88.637,491.729,71.561,489.275,54.769z"/>
	<path style="fill:#34CDFA;" d="M128.315,25.393c-21.373-27.996-61.243-33.691-89.6-12.8c-27.985,21.38-33.679,61.24-12.8,89.6
		c9.835,13.099,23.168,35.925,42.667,21.333l68.267-51.2C156.261,57.735,138.128,38.428,128.315,25.393z"/>
	<path style="fill:#01C0F9;" d="M50.789,93.489c-20.879-28.36-15.185-68.22,12.8-89.6c1.621-1.216,3.413-2.133,5.099-3.072
		C57.833,2.057,47.492,6.117,38.693,12.593c-27.985,21.38-33.679,61.24-12.8,89.6c9.835,13.099,23.168,35.925,42.667,21.333
		l6.933-5.205C65.296,114.716,57.253,102.193,50.789,93.489z"/>
	<path style="fill:#FFFFFF;" d="M251.515,311.26c-4.214,0.001-8.334-1.246-11.84-3.584l-64-42.667l23.659-35.499l49.451,32.96
		l72.96-72.96l30.165,30.165l-85.333,85.333C262.581,309.005,257.165,311.253,251.515,311.26z"/>
	<path style="fill:#B3ECFD;" d="M251.515,76.593c-117.821,0-213.333,95.513-213.333,213.333S133.694,503.26,251.515,503.26
		s213.333-95.513,213.333-213.333C464.719,172.16,369.282,76.723,251.515,76.593z M272.848,459.121v-41.195h-42.667v41.195
		C152.96,449.284,92.157,388.481,82.32,311.26h41.195v-42.667H82.32c9.837-77.221,70.64-138.024,147.861-147.861v41.195h42.667
		v-41.195c77.221,9.837,138.024,70.64,147.861,147.861h-41.195v42.667h41.195C410.872,388.481,350.069,449.284,272.848,459.121z"/>
</g>
<g>
</g>
<g>
</g>
<g>
</g>
<g>
</g>
<g>
</g>
<g>
</g>
<g>
</g>
<g>
</g>
<g>
</g>
<g>
</g>
<g>
</g>
<g>
</g>
<g>
</g>
<g>
</g>
<g>
</g>
</svg>
