<?xml version="1.0" encoding="iso-8859-1"?>
<!-- Generator: Adobe Illustrator 19.0.0, SVG Export Plug-In . SVG Version: 6.00 Build 0)  -->
<svg version="1.1" id="Capa_1" xmlns="http://www.w3.org/2000/svg" xmlns:xlink="http://www.w3.org/1999/xlink" x="0px" y="0px"
	 viewBox="0 0 512 512" style="enable-background:new 0 0 512 512;" xml:space="preserve">
<g>
	
		<rect x="60.876" y="97.839" transform="matrix(-0.7071 0.7071 -0.7071 -0.7071 230.8533 160.3868)" style="fill:#99E6FD;" width="42.667" height="60.331"/>
	
		<rect x="0.537" y="85.33" transform="matrix(-0.7071 0.7071 -0.7071 -0.7071 179.3496 139.0386)" style="fill:#34CDFA;" width="120.683" height="42.667"/>
	<path style="fill:#B3ECFD;" d="M259.978,0h-56.875c-7.829,0-14.229,9.557-14.229,21.333v85.333c0,11.776,6.4,21.333,14.229,21.333
		h56.896c7.808,0,14.208-9.557,14.208-21.333V21.333C274.207,9.557,267.807,0,259.978,0z"/>
	<rect x="146.207" style="fill:#34CDFA;" width="170.667" height="42.667"/>
	<circle style="fill:#E6F9FE;" cx="231.541" cy="298.667" r="192"/>
	<g>
		
			<rect x="124.872" y="129.545" transform="matrix(-0.8661 0.4999 -0.4999 -0.8661 348.2573 208.4579)" style="fill:#B3ECFD;" width="42.667" height="42.667"/>
		
			<rect x="62.397" y="191.991" transform="matrix(-0.4999 0.8661 -0.8661 -0.4999 310.3421 247.453)" style="fill:#B3ECFD;" width="42.667" height="42.667"/>
		
			<rect x="124.864" y="425.127" transform="matrix(-0.4999 0.8661 -0.8661 -0.4999 605.9517 543.0377)" style="fill:#B3ECFD;" width="42.667" height="42.667"/>
		
			<rect x="62.414" y="362.658" transform="matrix(-0.8661 0.4999 -0.4999 -0.8661 348.244 674.6877)" style="fill:#B3ECFD;" width="42.667" height="42.667"/>
		
			<rect x="295.527" y="425.137" transform="matrix(-0.8661 0.4999 -0.4999 -0.8661 814.4845 674.7408)" style="fill:#B3ECFD;" width="42.667" height="42.667"/>
		
			<rect x="358.001" y="362.681" transform="matrix(-0.4999 0.8661 -0.8661 -0.4999 901.5548 247.4601)" style="fill:#B3ECFD;" width="42.667" height="42.667"/>
	</g>
	<path style="fill:#67D9FB;" d="M231.541,85.333c-117.821,0-213.333,95.513-213.333,213.333S113.72,512,231.541,512
		s213.333-95.513,213.333-213.333C444.745,180.9,349.308,85.463,231.541,85.333z M252.874,467.861v-62.528h-42.667v62.528
		C132.986,458.024,72.183,397.221,62.346,320h62.528v-42.667H62.346c9.837-77.221,70.64-138.024,147.861-147.861V192h42.667v-62.528
		c77.221,9.837,138.024,70.64,147.861,147.861h-62.528V320h62.528C390.898,397.221,330.095,458.024,252.874,467.861z"/>
	
		<linearGradient id="SVGID_1_" gradientUnits="userSpaceOnUse" x1="-38.8291" y1="632.4844" x2="-26.8291" y2="644.4844" gradientTransform="matrix(21.3333 0 0 -21.3333 1059.8954 13791.667)">
		<stop  offset="0" style="stop-color:#34CDFA"/>
		<stop  offset="1" style="stop-color:#E8D9F1"/>
	</linearGradient>
	<polygon style="fill:url(#SVGID_1_);" points="508.874,64 466.207,64 466.207,21.333 423.541,21.333 423.541,76.501 
		216.458,283.584 246.623,313.749 453.706,106.667 508.874,106.667 	"/>
</g>
<g>
</g>
<g>
</g>
<g>
</g>
<g>
</g>
<g>
</g>
<g>
</g>
<g>
</g>
<g>
</g>
<g>
</g>
<g>
</g>
<g>
</g>
<g>
</g>
<g>
</g>
<g>
</g>
<g>
</g>
</svg>
