<?xml version="1.0" encoding="iso-8859-1"?>
<!-- Generator: Adobe Illustrator 19.0.0, SVG Export Plug-In . SVG Version: 6.00 Build 0)  -->
<svg version="1.1" id="Capa_1" xmlns="http://www.w3.org/2000/svg" xmlns:xlink="http://www.w3.org/1999/xlink" x="0px" y="0px"
	 viewBox="0 0 513.616 513.616" style="enable-background:new 0 0 513.616 513.616;" xml:space="preserve">
<path style="fill:#B3ECFD;" d="M381.608,445.076l-27.733-81.067c-4.267-10.667-17.067-17.067-27.733-12.8l0,0
	c-66.133,23.467-140.8-10.667-164.267-78.933c-10.667-27.733-10.667-57.6,0-85.333c4.267-10.667-2.133-23.467-12.8-27.733l0,0
	l-78.933-27.733c-10.667-4.267-23.467,2.133-27.733,12.8l0,0c-46.933,134.4,23.467,279.467,155.733,326.4
	c55.467,19.2,115.2,19.2,170.667,0C381.608,468.543,385.875,455.743,381.608,445.076L381.608,445.076z"/>
<path style="fill:#99E6FD;" d="M304.808,466.409c-140.8,0-256-113.067-256-256c0-27.733,4.267-53.333,12.8-81.067
	c-8.533,2.133-17.067,8.533-19.2,14.933c-46.933,134.4,23.467,279.467,155.733,326.4c55.467,19.2,115.2,19.2,170.667,0
	c8.533-2.133,12.8-10.667,14.933-19.2C358.141,462.143,330.408,466.409,304.808,466.409z"/>
<path style="fill:#CCF2FE;" d="M420.008,425.876l-89.6-89.6c-8.533-8.533-21.333-8.533-29.867,0l-29.867,29.867
	c-34.133,32-34.133,87.467-2.133,121.6s87.467,34.133,121.6,2.133c0,0,0,0,2.133-2.133l29.867-29.867
	C428.541,447.209,428.541,434.409,420.008,425.876z"/>
<path id="SVGCleanerId_0" style="fill:#CCF2FE;" d="M178.941,184.809l-89.6-91.733c-8.533-8.533-21.333-8.533-29.867,0l-32,32
	c-34.133,34.133-34.133,87.467,0,121.6s87.467,34.133,121.6,0l29.867-29.867C187.475,206.143,187.475,193.343,178.941,184.809
	L178.941,184.809z"/>
<g>
	<path id="SVGCleanerId_0_1_" style="fill:#CCF2FE;" d="M178.941,184.809l-89.6-91.733c-8.533-8.533-21.333-8.533-29.867,0l-32,32
		c-34.133,34.133-34.133,87.467,0,121.6s87.467,34.133,121.6,0l29.867-29.867C187.475,206.143,187.475,193.343,178.941,184.809
		L178.941,184.809z"/>
</g>
<linearGradient id="SVGID_1_" gradientUnits="userSpaceOnUse" x1="-37.1689" y1="633.4866" x2="-30.7549" y2="639.9006" gradientTransform="matrix(21.3333 0 0 -21.3333 1001.5959 13774.0059)">
	<stop  offset="0" style="stop-color:#34CDFA"/>
	<stop  offset="1" style="stop-color:#E8D9F1"/>
</linearGradient>
<path style="fill:url(#SVGID_1_);" d="M319.741,105.876H213.075v42.667h85.333v21.333h-64c-12.8,0-21.333,8.533-21.333,21.333v64
	c0,12.8,8.533,21.333,21.333,21.333h106.667v-42.667h-85.333v-21.333h64c12.8,0,21.333-8.533,21.333-21.333v-64
	C341.075,114.409,332.541,105.876,319.741,105.876z"/>
<linearGradient id="SVGID_2_" gradientUnits="userSpaceOnUse" x1="-28.0013" y1="633.354" x2="-22.6173" y2="638.739" gradientTransform="matrix(21.3333 0 0 -21.3333 1001.5959 13774.0059)">
	<stop  offset="0" style="stop-color:#34CDFA"/>
	<stop  offset="1" style="stop-color:#E8D9F1"/>
</linearGradient>
<path style="fill:url(#SVGID_2_);" d="M490.408,191.209v-64c0-19.2-23.467-27.733-36.267-14.933l-85.333,85.333
	c-12.8,12.8-4.267,36.267,14.933,36.267h64v42.667h42.667v-42.667h21.333v-42.667H490.408z M447.741,191.209h-12.8l12.8-12.8
	V191.209z"/>
<g>
	<path style="fill:#34CDFA;" d="M409.341,105.876c-70.4-72.533-183.467-83.2-268.8-27.733l-23.467-36.267
		c102.4-66.133,236.8-53.333,322.133,34.133L409.341,105.876z"/>
	<path style="fill:#34CDFA;" d="M458.408,410.943l-34.133-25.6c17.067-23.467,29.867-49.067,36.267-76.8l40.533,10.667
		C494.675,353.343,479.741,383.209,458.408,410.943z"/>
</g>
<g>
	<path style="fill:#99E6FD;" d="M420.008,455.743c8.533-8.533,8.533-21.333,0-29.867l-89.6-89.6c-8.533-8.533-21.333-8.533-29.867,0
		l-12.8,12.8l121.6,121.6L420.008,455.743z"/>
	<path style="fill:#99E6FD;" d="M185.341,199.743c0-6.4-2.133-10.667-6.4-14.933l-89.6-91.733c-8.533-8.533-21.333-8.533-29.867,0
		l-14.933,14.933l121.6,121.6l12.8-12.8C183.208,210.409,185.341,206.143,185.341,199.743z"/>
</g>
<g>
</g>
<g>
</g>
<g>
</g>
<g>
</g>
<g>
</g>
<g>
</g>
<g>
</g>
<g>
</g>
<g>
</g>
<g>
</g>
<g>
</g>
<g>
</g>
<g>
</g>
<g>
</g>
<g>
</g>
</svg>
