<?xml version="1.0" encoding="iso-8859-1"?>
<!-- Generator: Adobe Illustrator 19.0.0, SVG Export Plug-In . SVG Version: 6.00 Build 0)  -->
<svg version="1.1" id="Capa_1" xmlns="http://www.w3.org/2000/svg" xmlns:xlink="http://www.w3.org/1999/xlink" x="0px" y="0px"
	 viewBox="0 0 512 512" style="enable-background:new 0 0 512 512;" xml:space="preserve">
<g>
	<path style="fill:#E6F9FE;" d="M21.333,53.333h384c11.782,0,21.333,9.551,21.333,21.333V416c0,11.782-9.551,21.333-21.333,21.333
		h-384C9.551,437.333,0,427.782,0,416V74.667C0,62.885,9.551,53.333,21.333,53.333z"/>
	<path style="fill:#B3ECFD;" d="M426.667,74.667c0-11.782-9.551-21.333-21.333-21.333h-384C9.551,53.333,0,62.885,0,74.667v42.667
		h426.667V74.667z"/>
	<g>
		<rect x="192" y="10.667" style="fill:#34CDFA;" width="42.667" height="85.333"/>
		<rect x="298.667" y="10.667" style="fill:#34CDFA;" width="42.667" height="85.333"/>
		<rect x="85.333" y="10.667" style="fill:#34CDFA;" width="42.667" height="85.333"/>
	</g>
	<g>
		<rect x="85.333" y="160" style="fill:#B3ECFD;" width="42.667" height="42.667"/>
		<rect x="192" y="160" style="fill:#B3ECFD;" width="42.667" height="42.667"/>
		<rect x="298.667" y="160" style="fill:#B3ECFD;" width="42.667" height="42.667"/>
		<rect x="85.333" y="245.333" style="fill:#B3ECFD;" width="42.667" height="42.667"/>
		<rect x="192" y="245.333" style="fill:#B3ECFD;" width="42.667" height="42.667"/>
		<rect x="85.333" y="330.667" style="fill:#B3ECFD;" width="42.667" height="42.667"/>
	</g>
	
		<linearGradient id="SVGID_1_" gradientUnits="userSpaceOnUse" x1="-32.2387" y1="614.2822" x2="-25.1676" y2="621.3533" gradientTransform="matrix(21.3333 0 0 -21.3333 996.3334 13553.4453)">
		<stop  offset="0" style="stop-color:#34CDFA"/>
		<stop  offset="1" style="stop-color:#E8D9F1"/>
	</linearGradient>
	<circle style="fill:url(#SVGID_1_);" cx="384" cy="373.333" r="106.667"/>
	<path style="fill:#99E6FD;" d="M384,501.333c-70.692,0-128-57.308-128-128s57.308-128,128-128s128,57.308,128,128
		C511.918,443.992,454.658,501.251,384,501.333z M384,288c-47.128,0-85.333,38.205-85.333,85.333s38.205,85.333,85.333,85.333
		s85.333-38.205,85.333-85.333S431.128,288,384,288z"/>
	<path style="fill:#FFFFFF;" d="M384,416c-3.302,0-6.559-0.767-9.515-2.24l-42.667-21.333l19.093-38.165l25.813,12.907
		l32.235-48.341l35.499,23.659l-42.667,64C397.831,412.438,391.15,416.011,384,416z"/>
</g>
<g>
</g>
<g>
</g>
<g>
</g>
<g>
</g>
<g>
</g>
<g>
</g>
<g>
</g>
<g>
</g>
<g>
</g>
<g>
</g>
<g>
</g>
<g>
</g>
<g>
</g>
<g>
</g>
<g>
</g>
</svg>
