<?xml version="1.0" encoding="iso-8859-1"?>
<!-- Generator: Adobe Illustrator 19.0.0, SVG Export Plug-In . SVG Version: 6.00 Build 0)  -->
<svg version="1.1" id="Capa_1" xmlns="http://www.w3.org/2000/svg" xmlns:xlink="http://www.w3.org/1999/xlink" x="0px" y="0px"
	 viewBox="0 0 512.533 512.533" style="enable-background:new 0 0 512.533 512.533;" xml:space="preserve">
<path style="fill:#67D9FB;" d="M256.267,0c-106.667,0-192,85.333-192,192c0,157.867,170.667,309.333,177.067,315.733
	c8.533,6.4,19.2,6.4,27.733,0c8.533-6.4,179.2-157.867,179.2-315.733C448.267,85.333,362.933,0,256.267,0z"/>
<path style="fill:#34CDFA;" d="M106.933,192c0-98.133,74.667-179.2,170.667-189.867C271.2,0,262.667,0,256.267,0
	c-106.667,0-192,85.333-192,192c0,157.867,170.667,309.333,177.067,315.733c8.533,6.4,19.2,6.4,27.733,0c0,0,4.267-2.133,6.4-6.4
	C243.467,469.333,106.933,332.8,106.933,192z"/>
<linearGradient id="SVGID_1_" gradientUnits="userSpaceOnUse" x1="-37.9723" y1="633.9491" x2="-30.9007" y2="641.0197" gradientTransform="matrix(21.3333 0 0 -21.3333 990.9114 13791.667)">
	<stop  offset="0" style="stop-color:#34CDFA"/>
	<stop  offset="1" style="stop-color:#E8D9F1"/>
</linearGradient>
<circle style="fill:url(#SVGID_1_);" cx="256.267" cy="192" r="106.667"/>
<path style="fill:#CCF2FE;" d="M256.267,320c-70.4,0-128-57.6-128-128s57.6-128,128-128s128,57.6,128,128S326.667,320,256.267,320z
	 M256.267,106.667c-46.933,0-85.333,38.4-85.333,85.333s38.4,85.333,85.333,85.333S341.6,238.933,341.6,192
	S303.2,106.667,256.267,106.667z"/>
<path style="fill:#FFFFFF;" d="M256.267,234.667c-4.267,0-6.4,0-8.533-2.133L205.067,211.2l19.2-38.4l25.6,12.8l32-49.067
	L318.133,160l-42.667,64C269.067,230.4,262.667,234.667,256.267,234.667z"/>
<g>
</g>
<g>
</g>
<g>
</g>
<g>
</g>
<g>
</g>
<g>
</g>
<g>
</g>
<g>
</g>
<g>
</g>
<g>
</g>
<g>
</g>
<g>
</g>
<g>
</g>
<g>
</g>
<g>
</g>
</svg>
