<?xml version="1.0" encoding="iso-8859-1"?>
<!-- Generator: Adobe Illustrator 19.0.0, SVG Export Plug-In . SVG Version: 6.00 Build 0)  -->
<svg version="1.1" id="Capa_1" xmlns="http://www.w3.org/2000/svg" xmlns:xlink="http://www.w3.org/1999/xlink" x="0px" y="0px"
	 viewBox="0 0 511.287 511.287" style="enable-background:new 0 0 511.287 511.287;" xml:space="preserve">
<linearGradient id="SVGID_1_" gradientUnits="userSpaceOnUse" x1="-42.4813" y1="626.7744" x2="-26.9249" y2="642.3307" gradientTransform="matrix(21.3333 0 0 -21.3333 996.3334 13793.1895)">
	<stop  offset="0" style="stop-color:#34CDFA"/>
	<stop  offset="1" style="stop-color:#E8D9F1"/>
</linearGradient>
<circle style="fill:url(#SVGID_1_);" cx="256" cy="256.068" r="234.667"/>
<g>
	<path style="fill:#FFFFFF;" d="M234.667,320.068H128c-12.8,0-21.333-8.533-21.333-21.333v-64c0-12.8,8.533-21.333,21.333-21.333h64
		v-21.333h-85.333v-42.667h106.667c12.8,0,21.333,8.533,21.333,21.333v64c0,12.8-8.533,21.333-21.333,21.333h-64v21.333h85.333
		V320.068z"/>
	<path style="fill:#FFFFFF;" d="M384,320.068h-42.667v-42.667h-64c-19.2,0-27.733-23.467-14.933-36.267l85.333-85.333
		c12.8-12.8,36.267-4.267,36.267,14.933v64h21.333v42.667H384V320.068z M328.533,234.735h12.8v-12.8L328.533,234.735z"/>
</g>
<path style="fill:#B3ECFD;" d="M256,0.068c-140.8,0-256,115.2-256,256h42.667c0-108.8,83.2-200.533,192-211.2v40.533h42.667V44.868
	C377.6,55.535,458.667,134.468,467.2,234.735h-40.533v42.667H467.2c-10.667,100.267-89.6,181.333-189.867,189.867v-40.533h-42.667
	v40.533c-59.733-6.4-113.067-36.267-149.333-83.2h64v-42.667H42.667c-12.8,0-21.333,8.533-21.333,21.333v106.667H64v-44.8
	c93.867,106.667,256,115.2,360.533,23.467s117.333-256,23.467-360.533C398.933,32.068,328.533,0.068,256,0.068z"/>
<g>
</g>
<g>
</g>
<g>
</g>
<g>
</g>
<g>
</g>
<g>
</g>
<g>
</g>
<g>
</g>
<g>
</g>
<g>
</g>
<g>
</g>
<g>
</g>
<g>
</g>
<g>
</g>
<g>
</g>
</svg>
