<?xml version="1.0" encoding="iso-8859-1"?>
<!-- Generator: Adobe Illustrator 19.0.0, SVG Export Plug-In . SVG Version: 6.00 Build 0)  -->
<svg version="1.1" id="Capa_1" xmlns="http://www.w3.org/2000/svg" xmlns:xlink="http://www.w3.org/1999/xlink" x="0px" y="0px"
	 viewBox="0 0 512 512" style="enable-background:new 0 0 512 512;" xml:space="preserve">
<g>
	<path style="fill:#34CDFA;" d="M149.333,213.333h213.333c11.782,0,21.333-9.552,21.333-21.334c0-1.747-0.215-3.488-0.639-5.183
		L340.693,16.149C338.316,6.657,329.785,0,320,0H192c-9.785,0-18.316,6.657-20.693,16.149L128.64,186.816
		c-2.863,11.429,4.081,23.015,15.51,25.878C145.845,213.119,147.586,213.333,149.333,213.333z"/>
	<path style="fill:#01C0F9;" d="M192.64,186.816l42.667-170.667C237.684,6.657,246.215,0,256,0h-64
		c-9.785,0-18.316,6.657-20.693,16.149L128.64,186.816c-2.863,11.429,4.081,23.015,15.51,25.878
		c1.695,0.425,3.436,0.639,5.183,0.639h64c-11.782,0-21.333-9.552-21.333-21.334C192.001,190.252,192.215,188.511,192.64,186.816z"
		/>
	<path style="fill:#34CDFA;" d="M362.667,298.667H149.333c-11.782,0-21.333,9.552-21.333,21.334c0,1.747,0.215,3.488,0.639,5.183
		l42.667,170.667C173.684,505.343,182.215,512,192,512h128c9.785,0,18.316-6.657,20.693-16.149l42.667-170.667
		c2.863-11.429-4.081-23.015-15.51-25.878C366.155,298.881,364.414,298.667,362.667,298.667z"/>
	<path style="fill:#01C0F9;" d="M235.307,495.851L192.64,325.184c-2.863-11.429,4.081-23.015,15.51-25.878
		c1.695-0.425,3.436-0.639,5.183-0.639h-64c-11.782,0-21.333,9.552-21.333,21.334c0,1.747,0.215,3.488,0.639,5.183l42.667,170.667
		C173.684,505.343,182.215,512,192,512h64C246.215,512,237.684,505.343,235.307,495.851z"/>
	
		<linearGradient id="SVGID_1_" gradientUnits="userSpaceOnUse" x1="-38.9458" y1="630.2418" x2="-30.4605" y2="638.727" gradientTransform="matrix(21.3333 0 0 -21.3333 996.3334 13791.667)">
		<stop  offset="0" style="stop-color:#34CDFA"/>
		<stop  offset="1" style="stop-color:#E8D9F1"/>
	</linearGradient>
	<circle style="fill:url(#SVGID_1_);" cx="256" cy="256" r="128"/>
	<path style="fill:#FFFFFF;" d="M256,277.333c-3.309,0.003-6.574-0.764-9.536-2.24l-42.667-21.333l19.093-38.165l28.907,14.464
		l31.787-31.787l30.165,30.165l-42.667,42.667C267.079,275.097,261.654,277.338,256,277.333z"/>
	<path style="fill:#B3ECFD;" d="M256,106.667c-82.475,0-149.333,66.859-149.333,149.333S173.525,405.333,256,405.333
		S405.333,338.475,405.333,256C405.239,173.564,338.436,106.761,256,106.667z M277.333,360.533v-19.2h-42.667v19.2
		c-41.863-8.624-74.576-41.337-83.2-83.2h19.2v-42.667h-19.2c8.624-41.863,41.337-74.576,83.2-83.2v19.2h42.667v-19.2
		c41.863,8.624,74.576,41.337,83.2,83.2h-19.2v42.667h19.2C351.909,319.196,319.196,351.909,277.333,360.533z"/>
</g>
<g>
</g>
<g>
</g>
<g>
</g>
<g>
</g>
<g>
</g>
<g>
</g>
<g>
</g>
<g>
</g>
<g>
</g>
<g>
</g>
<g>
</g>
<g>
</g>
<g>
</g>
<g>
</g>
<g>
</g>
</svg>
