<?xml version="1.0" encoding="iso-8859-1"?>
<!-- Generator: Adobe Illustrator 19.0.0, SVG Export Plug-In . SVG Version: 6.00 Build 0)  -->
<svg version="1.1" id="Capa_1" xmlns="http://www.w3.org/2000/svg" xmlns:xlink="http://www.w3.org/1999/xlink" x="0px" y="0px"
	 viewBox="0 0 512 512" style="enable-background:new 0 0 512 512;" xml:space="preserve">
<circle style="fill:#34CDFA;" cx="255.2" cy="448" r="64"/>
<path style="fill:#01C0F9;" d="M233.867,448c0-27.733,17.067-51.2,42.667-59.733C270.133,386.133,261.6,384,255.2,384
	c-36.267,0-64,27.733-64,64s27.733,64,64,64c6.4,0,14.933-2.133,21.333-4.267C250.933,499.2,233.867,475.733,233.867,448z"/>
<path style="fill:#99E6FD;" d="M434.4,386.133c-46.933-23.467-72.533-68.267-72.533-130.133c0-76.8-42.667-128-106.667-128
	s-106.667,51.2-106.667,128c0,61.867-25.6,106.667-72.533,130.133c-19.2,10.667-12.8,40.533,8.533,40.533h341.333
	C447.2,426.667,453.6,396.8,434.4,386.133z"/>
<path style="fill:#80DFFC;" d="M116.533,386.133C165.6,362.667,191.2,317.867,191.2,256c0-68.267,32-115.2,85.333-125.867
	C270.133,128,261.6,128,255.2,128c-64,0-106.667,51.2-106.667,128c0,61.867-25.6,106.667-72.533,130.133
	c-19.2,10.667-12.8,40.533,8.533,40.533H127.2C105.867,426.667,97.333,396.8,116.533,386.133z"/>
<path style="fill:#34CDFA;" d="M255.2,128c-36.267,0-64-27.733-64-64s27.733-64,64-64s64,27.733,64,64S291.467,128,255.2,128z
	 M255.2,42.667c-12.8,0-21.333,8.533-21.333,21.333S242.4,85.333,255.2,85.333S276.533,76.8,276.533,64S268,42.667,255.2,42.667z"/>
<linearGradient id="SVGID_1_" gradientUnits="userSpaceOnUse" x1="-28.8919" y1="634.9942" x2="-26.7699" y2="637.1152" gradientTransform="matrix(21.3333 0 0 -21.3333 1012.6002 13791.667)">
	<stop  offset="0" style="stop-color:#34CDFA"/>
	<stop  offset="1" style="stop-color:#E8D9F1"/>
</linearGradient>
<path style="fill:url(#SVGID_1_);" d="M419.467,177.067L389.6,206.933c8.533,8.533,8.533,21.333,0,29.867l0,0l29.867,29.867
	C445.067,243.2,445.067,202.667,419.467,177.067L419.467,177.067z"/>
<linearGradient id="SVGID_2_" gradientUnits="userSpaceOnUse" x1="-27.817" y1="633.9192" x2="-23.575" y2="638.1622" gradientTransform="matrix(21.3333 0 0 -21.3333 1012.6002 13791.667)">
	<stop  offset="0" style="stop-color:#34CDFA"/>
	<stop  offset="1" style="stop-color:#E8D9F1"/>
</linearGradient>
<path style="fill:url(#SVGID_2_);" d="M464.267,132.267L434.4,162.133c34.133,34.133,34.133,87.467,0,121.6l29.867,29.867
	C515.467,264.533,515.467,183.467,464.267,132.267z"/>
<linearGradient id="SVGID_3_" gradientUnits="userSpaceOnUse" x1="-44.2999" y1="634.9882" x2="-42.1779" y2="637.1091" gradientTransform="matrix(21.3333 0 0 -21.3333 1012.6002 13791.667)">
	<stop  offset="0" style="stop-color:#34CDFA"/>
	<stop  offset="1" style="stop-color:#E8D9F1"/>
</linearGradient>
<path style="fill:url(#SVGID_3_);" d="M90.933,177.067c-25.6,25.6-25.6,66.133,0,89.6l0,0L120.8,236.8
	c-8.533-8.533-8.533-21.333,0-29.867l0,0L90.933,177.067z"/>
<linearGradient id="SVGID_4_" gradientUnits="userSpaceOnUse" x1="-47.4453" y1="633.8915" x2="-43.2033" y2="638.1345" gradientTransform="matrix(21.3333 0 0 -21.3333 1012.6002 13791.667)">
	<stop  offset="0" style="stop-color:#34CDFA"/>
	<stop  offset="1" style="stop-color:#E8D9F1"/>
</linearGradient>
<path style="fill:url(#SVGID_4_);" d="M76,162.133l-29.867-29.867c-49.067,49.067-49.067,130.133,0,181.333L76,283.733
	C41.867,249.6,41.867,196.267,76,162.133z"/>
<circle style="fill:#FFFFFF;" cx="276.533" cy="213.333" r="21.333"/>
<g>
</g>
<g>
</g>
<g>
</g>
<g>
</g>
<g>
</g>
<g>
</g>
<g>
</g>
<g>
</g>
<g>
</g>
<g>
</g>
<g>
</g>
<g>
</g>
<g>
</g>
<g>
</g>
<g>
</g>
</svg>
