<?xml version="1.0" encoding="iso-8859-1"?>
<!-- Generator: Adobe Illustrator 19.0.0, SVG Export Plug-In . SVG Version: 6.00 Build 0)  -->
<svg version="1.1" id="Capa_1" xmlns="http://www.w3.org/2000/svg" xmlns:xlink="http://www.w3.org/1999/xlink" x="0px" y="0px"
	 viewBox="0 0 512 512" style="enable-background:new 0 0 512 512;" xml:space="preserve">
<g>
	<path style="fill:#34CDFA;" d="M320,64c-106.667,0-166.4,54.997-213.333,85.333L149.333,192L0,256l149.333,64l-42.667,42.667
		C153.6,393.003,234.667,448,320,448c106.039,0,192-85.961,192-192S426.039,64,320,64z"/>
	
		<linearGradient id="SVGID_1_" gradientUnits="userSpaceOnUse" x1="-35.9458" y1="630.2418" x2="-27.4605" y2="638.727" gradientTransform="matrix(21.3333 0 0 -21.3333 996.3334 13791.667)">
		<stop  offset="0" style="stop-color:#34CDFA"/>
		<stop  offset="1" style="stop-color:#E8D9F1"/>
	</linearGradient>
	<circle style="fill:url(#SVGID_1_);" cx="320" cy="256" r="128"/>
	<path style="fill:#99E6FD;" d="M320,405.333c-82.475,0-149.333-66.859-149.333-149.333S237.525,106.667,320,106.667
		S469.333,173.525,469.333,256C469.239,338.436,402.436,405.239,320,405.333z M320,149.333c-58.91,0-106.667,47.756-106.667,106.667
		S261.09,362.667,320,362.667S426.667,314.91,426.667,256C426.596,197.119,378.881,149.404,320,149.333z"/>
	<path style="fill:#FFFFFF;" d="M320,277.333c-3.309,0.003-6.574-0.764-9.536-2.24l-42.667-21.333l19.093-38.165l28.907,14.464
		l31.787-31.787l30.165,30.165l-42.667,42.667C331.079,275.097,325.654,277.338,320,277.333z"/>
	<g>
		<rect y="106.667" style="fill:#CCF2FE;" width="85.333" height="42.667"/>
		<rect y="362.667" style="fill:#CCF2FE;" width="85.333" height="42.667"/>
		<rect x="85.333" y="21.333" style="fill:#CCF2FE;" width="85.333" height="42.667"/>
		<rect x="85.333" y="448" style="fill:#CCF2FE;" width="85.333" height="42.667"/>
	</g>
</g>
<g>
</g>
<g>
</g>
<g>
</g>
<g>
</g>
<g>
</g>
<g>
</g>
<g>
</g>
<g>
</g>
<g>
</g>
<g>
</g>
<g>
</g>
<g>
</g>
<g>
</g>
<g>
</g>
<g>
</g>
</svg>
