<?xml version="1.0" encoding="iso-8859-1"?>
<!-- Generator: Adobe Illustrator 19.0.0, SVG Export Plug-In . SVG Version: 6.00 Build 0)  -->
<svg version="1.1" id="Capa_1" xmlns="http://www.w3.org/2000/svg" xmlns:xlink="http://www.w3.org/1999/xlink" x="0px" y="0px"
	 viewBox="0 0 512 512" style="enable-background:new 0 0 512 512;" xml:space="preserve">
<g>
	<path style="fill:#CCF2FE;" d="M495.829,192.64l-39.488-9.877c-2.076-5.689-4.373-11.243-6.891-16.661l20.928-34.88
		c5.043-8.394,3.724-19.144-3.2-26.069L406.848,44.8c-6.925-6.924-17.675-8.243-26.069-3.2l-34.901,20.928
		c-5.433-2.517-10.987-4.814-16.661-6.891l-9.856-39.488C316.982,6.657,308.452,0,298.667,0h-85.333
		c-9.785,0-18.316,6.657-20.693,16.149l-9.877,39.488c-5.689,2.076-11.243,4.373-16.661,6.891L131.2,41.6
		c-8.394-5.043-19.144-3.724-26.069,3.2L44.8,105.152c-6.924,6.925-8.243,17.675-3.2,26.069l20.928,34.88
		c-2.517,5.433-4.814,10.987-6.891,16.661l-39.467,9.877C6.67,195.01,0.003,203.542,0,213.333v85.333
		c0.003,9.791,6.67,18.324,16.171,20.693l39.488,9.877c2.076,5.689,4.373,11.243,6.891,16.661L41.6,380.779
		c-5.043,8.394-3.724,19.144,3.2,26.069l60.352,60.352c6.925,6.924,17.675,8.243,26.069,3.2l34.901-20.928
		c5.433,2.517,10.987,4.814,16.661,6.891l9.877,39.488c2.376,9.484,10.895,16.139,20.672,16.149h85.333
		c9.785,0,18.316-6.657,20.693-16.149l9.877-39.488c5.689-2.076,11.243-4.373,16.661-6.891L380.8,470.4
		c8.394,5.043,19.144,3.724,26.069-3.2l60.331-60.352c6.924-6.925,8.243-17.675,3.2-26.069l-20.928-34.88
		c2.517-5.433,4.814-10.987,6.891-16.661l39.488-9.877c9.492-2.378,16.149-10.908,16.149-20.693v-85.333
		C511.997,203.542,505.33,195.01,495.829,192.64z"/>
	
		<linearGradient id="SVGID_1_" gradientUnits="userSpaceOnUse" x1="-39.6529" y1="629.5346" x2="-29.7534" y2="639.4341" gradientTransform="matrix(21.3333 0 0 -21.3333 996.3334 13791.667)">
		<stop  offset="0" style="stop-color:#34CDFA"/>
		<stop  offset="1" style="stop-color:#E8D9F1"/>
	</linearGradient>
	<circle style="fill:url(#SVGID_1_);" cx="256" cy="256" r="149.333"/>
	<path style="fill:#99E6FD;" d="M256,426.667c-94.257,0-170.667-76.41-170.667-170.667S161.743,85.333,256,85.333
		S426.667,161.743,426.667,256C426.561,350.213,350.213,426.561,256,426.667z M256,128c-70.692,0-128,57.308-128,128
		s57.308,128,128,128s128-57.308,128-128C383.918,185.342,326.658,128.082,256,128z"/>
	<path style="fill:#FFFFFF;" d="M256,277.333c-3.302,0-6.559-0.767-9.515-2.24l-42.667-21.333l19.093-38.165l25.813,12.907
		l32.235-48.341l35.499,23.659l-42.667,64C269.831,273.772,263.15,277.344,256,277.333z"/>
</g>
<g>
</g>
<g>
</g>
<g>
</g>
<g>
</g>
<g>
</g>
<g>
</g>
<g>
</g>
<g>
</g>
<g>
</g>
<g>
</g>
<g>
</g>
<g>
</g>
<g>
</g>
<g>
</g>
<g>
</g>
</svg>
