<?xml version="1.0" encoding="iso-8859-1"?>
<!-- Generator: Adobe Illustrator 19.0.0, SVG Export Plug-In . SVG Version: 6.00 Build 0)  -->
<svg version="1.1" id="Capa_1" xmlns="http://www.w3.org/2000/svg" xmlns:xlink="http://www.w3.org/1999/xlink" x="0px" y="0px"
	 viewBox="0 0 512 512" style="enable-background:new 0 0 512 512;" xml:space="preserve">
<g>
	
		<linearGradient id="SVGID_1_" gradientUnits="userSpaceOnUse" x1="-41.9102" y1="627.2773" x2="-27.496" y2="641.6915" gradientTransform="matrix(21.3333 0 0 -21.3333 996.3334 13791.667)">
		<stop  offset="0" style="stop-color:#34CDFA"/>
		<stop  offset="1" style="stop-color:#E8D9F1"/>
	</linearGradient>
	<path style="fill:url(#SVGID_1_);" d="M384,170.667V85.333C384,73.551,374.449,64,362.667,64H149.333
		C137.551,64,128,73.551,128,85.333v85.333c0,35.346,28.654,64,64,64h21.333v42.667H192c-35.346,0-64,28.654-64,64v85.333
		c0,11.782,9.551,21.333,21.333,21.333h213.333c11.782,0,21.333-9.551,21.333-21.333v-85.333c0-35.346-28.654-64-64-64h-21.333
		v-42.667H320C355.346,234.667,384,206.013,384,170.667z"/>
	<path style="fill:#99E6FD;" d="M106.667,0h298.667c11.782,0,21.333,9.551,21.333,21.333V64c0,11.782-9.551,21.333-21.333,21.333
		H106.667c-11.782,0-21.333-9.551-21.333-21.333V21.333C85.333,9.551,94.885,0,106.667,0z"/>
	<path style="fill:#67D9FB;" d="M128,64V21.333C128,9.551,137.551,0,149.333,0h-42.667C94.885,0,85.333,9.551,85.333,21.333V64
		c0,11.782,9.551,21.333,21.333,21.333h42.667C137.551,85.333,128,75.782,128,64z"/>
	<path style="fill:#99E6FD;" d="M106.667,426.667h298.667c11.782,0,21.333,9.551,21.333,21.333v42.667
		c0,11.782-9.551,21.333-21.333,21.333H106.667c-11.782,0-21.333-9.551-21.333-21.333V448
		C85.333,436.218,94.885,426.667,106.667,426.667z"/>
	<path style="fill:#67D9FB;" d="M128,490.667V448c0-11.782,9.551-21.333,21.333-21.333h-42.667
		c-11.782,0-21.333,9.551-21.333,21.333v42.667c0,11.782,9.551,21.333,21.333,21.333h42.667C137.551,512,128,502.449,128,490.667z"
		/>
	<circle style="fill:#FFFFFF;" cx="320" cy="170.667" r="21.333"/>
</g>
<g>
</g>
<g>
</g>
<g>
</g>
<g>
</g>
<g>
</g>
<g>
</g>
<g>
</g>
<g>
</g>
<g>
</g>
<g>
</g>
<g>
</g>
<g>
</g>
<g>
</g>
<g>
</g>
<g>
</g>
</svg>
