<?xml version="1.0" encoding="iso-8859-1"?>
<!-- Generator: Adobe Illustrator 19.0.0, SVG Export Plug-In . SVG Version: 6.00 Build 0)  -->
<svg version="1.1" id="Capa_1" xmlns="http://www.w3.org/2000/svg" xmlns:xlink="http://www.w3.org/1999/xlink" x="0px" y="0px"
	 viewBox="0 0 512 512" style="enable-background:new 0 0 512 512;" xml:space="preserve">
<g>
	
		<rect x="356.955" y="170.643" transform="matrix(-0.7071 0.7071 -0.7071 -0.7071 796.6041 53.9888)" style="fill:#99E6FD;" width="60.331" height="42.667"/>
	
		<rect x="387.128" y="110.326" transform="matrix(-0.7071 0.7071 -0.7071 -0.7071 817.9675 2.5216)" style="fill:#67D9FB;" width="42.667" height="120.683"/>
	
		<linearGradient id="SVGID_1_" gradientUnits="userSpaceOnUse" x1="-61.4916" y1="622.9104" x2="-47.6676" y2="636.7344" gradientTransform="matrix(21.3333 0 0 -21.3333 1366.6937 13791.667)">
		<stop  offset="0" style="stop-color:#34CDFA"/>
		<stop  offset="1" style="stop-color:#E8D9F1"/>
	</linearGradient>
	<circle style="fill:url(#SVGID_1_);" cx="237.786" cy="320" r="170.667"/>
	<rect x="216.452" y="85.333" style="fill:#99E6FD;" width="42.667" height="64"/>
	<path style="fill:#34CDFA;" d="M280.452,0h-85.333c-23.564,0-42.667,19.103-42.667,42.667V64c0,11.782,9.551,21.333,21.333,21.333
		h128c11.782,0,21.333-9.551,21.333-21.333V42.667C323.119,19.103,304.016,0,280.452,0z"/>
	<path style="fill:#01C0F9;" d="M195.119,64V42.667C195.119,19.103,214.221,0,237.786,0h-42.667
		c-23.564,0-42.667,19.103-42.667,42.667V64c0,11.782,9.551,21.333,21.333,21.333h42.667C204.67,85.333,195.119,75.782,195.119,64z"
		/>
	<path style="fill:#FFFFFF;" d="M237.786,341.333c-2.291,0.002-4.567-0.366-6.741-1.088l-64-21.333l13.504-40.533l51.499,17.067
		l54.677-54.677l30.165,30.165l-64,64C248.909,338.994,243.472,341.298,237.786,341.333z"/>
	<path style="fill:#CCF2FE;" d="M237.786,128c-106.039,0-192,85.961-192,192s85.961,192,192,192s192-85.961,192-192
		C429.668,214.01,343.776,128.118,237.786,128z M259.119,467.627v-40.96h-42.667v40.96c-65.408-9.51-116.783-60.885-126.293-126.293
		h40.96v-42.667h-40.96c9.51-65.408,60.885-116.783,126.293-126.293v40.96h42.667v-40.96
		c65.408,9.51,116.783,60.885,126.293,126.293h-40.96v42.667h40.96C375.902,406.741,324.527,458.117,259.119,467.627z"/>
</g>
<g>
</g>
<g>
</g>
<g>
</g>
<g>
</g>
<g>
</g>
<g>
</g>
<g>
</g>
<g>
</g>
<g>
</g>
<g>
</g>
<g>
</g>
<g>
</g>
<g>
</g>
<g>
</g>
<g>
</g>
</svg>
